<svg xmlns="http://www.w3.org/2000/svg" xmlns:xlink="http://www.w3.org/1999/xlink" width="600" zoomAndPan="magnify" viewBox="0 0 450 74.999997" height="100" preserveAspectRatio="xMidYMid meet" version="1.0"><defs><clipPath id="93385289c2"><path d="M 399 1.3125 L 450 1.3125 L 450 70 L 399 70 Z M 399 1.3125 " clip-rule="nonzero"/></clipPath><clipPath id="bcb8f4bc76"><path d="M 374 1.3125 L 404 1.3125 L 404 70 L 374 70 Z M 374 1.3125 " clip-rule="nonzero"/></clipPath><clipPath id="1cdfcb7adb"><path d="M 158 10 L 219 10 L 219 74.8125 L 158 74.8125 Z M 158 10 " clip-rule="nonzero"/></clipPath><clipPath id="f4c3e9a7a4"><path d="M 157 8 L 220 8 L 220 74.8125 L 157 74.8125 Z M 157 8 " clip-rule="nonzero"/></clipPath></defs><path fill="#3e503a" d="M 437.003906 14.109375 C 437.40625 12.746094 437.710938 11.613281 437.910156 10.707031 C 438.113281 9.800781 438.214844 9.144531 438.214844 8.742188 C 438.214844 7.984375 437.710938 7.457031 436.699219 7.152344 C 435.6875 6.851562 433.867188 6.699219 431.242188 6.699219 L 432.074219 3.675781 L 446.703125 3.675781 L 438.289062 34.292969 C 437.226562 38.226562 436.347656 41.578125 435.636719 44.351562 C 434.929688 47.121094 434.351562 49.464844 433.894531 51.382812 C 433.488281 53.246094 433.210938 54.785156 433.0625 55.992188 C 432.910156 57.203125 432.832031 58.210938 432.832031 59.015625 C 432.832031 60.175781 433.011719 60.984375 433.363281 61.4375 C 433.71875 61.890625 434.171875 62.117188 434.730469 62.117188 C 435.84375 62.117188 437.027344 61.183594 438.289062 59.320312 C 439.605469 57.453125 440.765625 55.011719 441.777344 51.988281 L 444.660156 52.667969 C 442.941406 57.65625 441.046875 61.335938 438.972656 63.703125 C 436.953125 66.023438 434.652344 67.183594 432.074219 67.183594 C 430.253906 67.183594 428.84375 66.601562 427.832031 65.445312 C 426.871094 64.285156 426.390625 62.621094 426.390625 60.453125 C 426.390625 59.898438 426.441406 59.320312 426.542969 58.714844 C 426.644531 58.109375 426.769531 57.53125 426.921875 56.976562 L 426.316406 56.824219 C 424.394531 60.152344 422.070312 62.722656 419.34375 64.535156 C 416.613281 66.300781 414.011719 67.183594 411.535156 67.183594 C 410.222656 67.183594 409.007812 66.90625 407.898438 66.351562 C 406.785156 65.746094 405.824219 64.941406 405.015625 63.929688 C 404.207031 62.875 403.550781 61.636719 403.046875 60.226562 C 402.589844 58.765625 402.363281 57.152344 402.363281 55.386719 C 402.363281 53.222656 402.691406 50.976562 403.347656 48.660156 C 404.054688 46.289062 404.992188 44.023438 406.152344 41.855469 C 407.367188 39.636719 408.753906 37.546875 410.320312 35.582031 C 411.886719 33.613281 413.53125 31.902344 415.25 30.4375 C 417.015625 28.925781 418.8125 27.742188 420.628906 26.886719 C 422.5 26.027344 424.320312 25.601562 426.085938 25.601562 C 427.808594 25.601562 429.09375 25.929688 429.957031 26.582031 C 430.863281 27.238281 431.746094 28.273438 432.605469 29.683594 Z M 426.617188 29.609375 C 425.304688 29.609375 423.964844 30.035156 422.601562 30.894531 C 421.289062 31.699219 419.996094 32.808594 418.734375 34.21875 C 417.472656 35.582031 416.285156 37.167969 415.171875 38.980469 C 414.113281 40.796875 413.175781 42.6875 412.367188 44.652344 C 411.558594 46.617188 410.902344 48.609375 410.398438 50.625 C 409.941406 52.640625 409.714844 54.53125 409.714844 56.296875 C 409.714844 58.109375 410.171875 59.570312 411.082031 60.679688 C 411.988281 61.738281 413.203125 62.269531 414.71875 62.269531 C 415.878906 62.269531 417.066406 61.816406 418.28125 60.90625 C 419.492188 59.949219 420.679688 58.714844 421.839844 57.203125 C 423.007812 55.691406 424.09375 53.976562 425.101562 52.0625 C 426.164062 50.097656 427.074219 48.105469 427.832031 46.089844 C 428.640625 44.023438 429.273438 42.007812 429.726562 40.039062 C 430.179688 38.023438 430.410156 36.210938 430.410156 34.597656 C 430.410156 33.035156 430.105469 31.824219 429.496094 30.96875 C 428.894531 30.0625 427.933594 29.609375 426.617188 29.609375 Z M 426.617188 29.609375 " fill-opacity="1" fill-rule="nonzero"/><path fill="#3e503a" d="M 385.402344 41.476562 C 386.109375 39.511719 386.617188 37.925781 386.917969 36.714844 C 387.222656 35.503906 387.375 34.546875 387.375 33.839844 C 387.375 33.136719 387.25 32.683594 386.996094 32.480469 C 386.792969 32.226562 386.566406 32.101562 386.3125 32.101562 C 385.757812 32.101562 385.152344 32.378906 384.492188 32.933594 C 383.835938 33.4375 383.179688 34.042969 382.523438 34.75 C 381.867188 35.453125 381.285156 36.160156 380.78125 36.867188 C 380.273438 37.570312 379.921875 38.125 379.71875 38.527344 L 377.519531 37.167969 C 378.128906 36.058594 378.960938 34.824219 380.023438 33.464844 C 381.132812 32.101562 382.371094 30.84375 383.734375 29.683594 C 385.101562 28.523438 386.515625 27.566406 387.980469 26.808594 C 389.445312 26.003906 390.835938 25.601562 392.148438 25.601562 C 393.414062 25.601562 394.347656 25.976562 394.953125 26.734375 C 395.609375 27.441406 395.941406 28.75 395.941406 30.664062 C 395.941406 32.128906 395.484375 34.09375 394.574219 36.5625 C 393.714844 39.03125 392.578125 42.207031 391.164062 46.089844 L 388.359375 53.726562 C 388.257812 53.976562 388.105469 54.378906 387.90625 54.933594 C 387.753906 55.4375 387.578125 55.992188 387.375 56.597656 C 387.222656 57.152344 387.070312 57.707031 386.917969 58.261719 C 386.820312 58.816406 386.769531 59.269531 386.769531 59.621094 C 386.769531 60.074219 386.894531 60.480469 387.148438 60.832031 C 387.398438 61.183594 387.804688 61.359375 388.359375 61.359375 C 389.117188 61.359375 389.902344 61.058594 390.710938 60.453125 C 391.519531 59.796875 392.300781 59.042969 393.058594 58.1875 C 393.816406 57.328125 394.5 56.472656 395.105469 55.617188 C 395.710938 54.707031 396.167969 54.003906 396.46875 53.5 L 398.742188 54.785156 C 398.136719 55.992188 397.304688 57.328125 396.242188 58.789062 C 395.230469 60.253906 394.070312 61.613281 392.757812 62.875 C 391.441406 64.082031 390.003906 65.117188 388.433594 65.972656 C 386.867188 66.78125 385.253906 67.183594 383.585938 67.183594 C 382.121094 67.183594 381.007812 66.804688 380.25 66.046875 C 379.542969 65.292969 379.1875 64.03125 379.1875 62.269531 C 379.1875 60.808594 379.414062 59.246094 379.871094 57.582031 C 380.375 55.867188 381.082031 53.726562 381.992188 51.15625 Z M 396.546875 13.203125 C 395.28125 13.203125 394.171875 12.773438 393.210938 11.917969 C 392.300781 11.058594 391.847656 9.949219 391.847656 8.589844 C 391.847656 7.230469 392.300781 6.070312 393.210938 5.113281 C 394.121094 4.152344 395.230469 3.675781 396.546875 3.675781 C 397.960938 3.675781 399.121094 4.152344 400.03125 5.113281 C 400.941406 6.070312 401.398438 7.203125 401.398438 8.515625 C 401.398438 9.824219 400.917969 10.933594 399.957031 11.839844 C 398.996094 12.746094 397.859375 13.203125 396.546875 13.203125 Z M 396.546875 13.203125 " fill-opacity="1" fill-rule="nonzero"/><path fill="#3e503a" d="M 362.121094 67.183594 C 360.707031 67.183594 359.46875 66.703125 358.410156 65.746094 C 357.398438 64.789062 356.894531 63.554688 356.894531 62.042969 C 356.894531 60.53125 357.398438 59.246094 358.410156 58.1875 C 359.417969 57.128906 360.65625 56.597656 362.121094 56.597656 C 363.6875 56.597656 364.976562 57.128906 365.988281 58.1875 C 367 59.246094 367.503906 60.503906 367.503906 61.96875 C 367.503906 63.429688 366.972656 64.664062 365.914062 65.671875 C 364.851562 66.679688 363.585938 67.183594 362.121094 67.183594 Z M 362.121094 67.183594 " fill-opacity="1" fill-rule="nonzero"/><path fill="#3e503a" d="M 333.9375 37.167969 C 333.9375 35.503906 334.238281 33.96875 334.84375 32.554688 C 335.503906 31.144531 336.386719 29.9375 337.5 28.925781 C 338.609375 27.871094 339.921875 27.0625 341.441406 26.507812 C 343.007812 25.902344 344.699219 25.601562 346.519531 25.601562 C 348.941406 25.601562 350.964844 26.207031 352.582031 27.414062 C 354.199219 28.625 355.007812 30.1875 355.007812 32.101562 C 355.007812 33.160156 354.703125 33.992188 354.097656 34.597656 C 353.542969 35.203125 352.757812 35.503906 351.746094 35.503906 C 350.585938 35.503906 349.75 35.175781 349.246094 34.523438 C 348.742188 33.816406 348.3125 33.0625 347.957031 32.253906 C 347.605469 31.398438 347.226562 30.617188 346.820312 29.910156 C 346.417969 29.203125 345.734375 28.851562 344.773438 28.851562 C 343.664062 28.851562 342.726562 29.332031 341.96875 30.289062 C 341.210938 31.246094 340.832031 32.429688 340.832031 33.84375 C 340.832031 35.503906 341.3125 37.066406 342.273438 38.527344 C 343.285156 39.941406 344.394531 41.425781 345.609375 42.988281 C 346.820312 44.550781 347.90625 46.265625 348.867188 48.128906 C 349.878906 49.996094 350.382812 52.1875 350.382812 54.707031 C 350.382812 56.421875 350.003906 58.035156 349.246094 59.546875 C 348.539062 61.058594 347.554688 62.394531 346.289062 63.554688 C 345.078125 64.664062 343.664062 65.542969 342.046875 66.199219 C 340.429688 66.855469 338.761719 67.183594 337.042969 67.183594 C 334.011719 67.183594 331.585938 66.527344 329.765625 65.21875 C 328 63.90625 327.113281 62.191406 327.113281 60.074219 C 327.113281 58.613281 327.441406 57.480469 328.101562 56.671875 C 328.808594 55.816406 329.742188 55.386719 330.902344 55.386719 C 333.078125 55.386719 334.316406 56.875 334.617188 59.847656 C 334.769531 61.460938 335.023438 62.546875 335.375 63.101562 C 335.78125 63.605469 336.5625 63.855469 337.726562 63.855469 C 339.542969 63.855469 340.984375 63.328125 342.046875 62.269531 C 343.105469 61.160156 343.636719 59.648438 343.636719 57.730469 C 343.636719 55.714844 343.132812 53.925781 342.121094 52.363281 C 341.109375 50.800781 340 49.289062 338.785156 47.828125 C 337.574219 46.316406 336.460938 44.730469 335.453125 43.066406 C 334.441406 41.402344 333.9375 39.4375 333.9375 37.167969 Z M 333.9375 37.167969 " fill-opacity="1" fill-rule="nonzero"/><path fill="#3e503a" d="M 295.976562 61.738281 C 296.785156 61.738281 297.847656 61.183594 299.160156 60.074219 C 300.476562 58.917969 301.863281 57.40625 303.332031 55.539062 C 304.796875 53.625 306.210938 51.457031 307.574219 49.039062 C 308.988281 46.617188 310.175781 44.097656 311.136719 41.476562 L 316.746094 26.355469 L 323.796875 26.355469 L 318.1875 43.671875 C 317.378906 46.191406 316.695312 48.359375 316.140625 50.171875 C 315.585938 51.9375 315.128906 53.449219 314.777344 54.707031 C 314.421875 55.917969 314.167969 56.925781 314.019531 57.730469 C 313.867188 58.488281 313.789062 59.09375 313.789062 59.546875 C 313.789062 60.859375 314.246094 61.511719 315.15625 61.511719 C 315.660156 61.511719 316.265625 61.285156 316.972656 60.832031 C 317.679688 60.328125 318.390625 59.671875 319.097656 58.867188 C 319.855469 58.007812 320.5625 57.078125 321.21875 56.070312 C 321.925781 55.011719 322.53125 53.902344 323.039062 52.742188 L 325.3125 53.875 C 324.652344 55.539062 323.796875 57.179688 322.734375 58.789062 C 321.671875 60.351562 320.511719 61.765625 319.246094 63.023438 C 318.035156 64.285156 316.746094 65.292969 315.382812 66.046875 C 314.019531 66.804688 312.679688 67.183594 311.363281 67.183594 C 309.796875 67.183594 308.738281 66.628906 308.179688 65.519531 C 307.625 64.410156 307.347656 62.824219 307.347656 60.757812 C 307.347656 59.898438 307.371094 58.992188 307.421875 58.035156 C 307.523438 57.027344 307.675781 56.042969 307.878906 55.085938 L 307.652344 54.859375 C 306.285156 57.277344 304.949219 59.269531 303.632812 60.832031 C 302.371094 62.394531 301.132812 63.65625 299.917969 64.613281 C 298.707031 65.570312 297.519531 66.226562 296.355469 66.578125 C 295.195312 66.980469 294.058594 67.183594 292.945312 67.183594 C 290.570312 67.183594 288.902344 66.527344 287.945312 65.21875 C 287.035156 63.90625 286.578125 62.292969 286.578125 60.378906 C 286.578125 58.261719 286.984375 55.941406 287.792969 53.421875 C 288.601562 50.851562 289.460938 48.433594 290.371094 46.164062 C 291.277344 43.898438 292.035156 41.980469 292.644531 40.417969 C 293.300781 38.855469 293.804688 37.546875 294.160156 36.488281 C 294.5625 35.429688 294.839844 34.574219 294.992188 33.917969 C 295.195312 33.261719 295.296875 32.734375 295.296875 32.328125 C 295.296875 32.128906 295.246094 31.953125 295.144531 31.800781 C 295.09375 31.597656 294.917969 31.5 294.613281 31.5 C 293.957031 31.5 292.996094 32.078125 291.734375 33.238281 C 290.519531 34.394531 288.851562 36.261719 286.730469 38.832031 L 284.761719 37.773438 C 285.519531 36.3125 286.480469 34.851562 287.640625 33.386719 C 288.804688 31.925781 290.042969 30.617188 291.355469 29.457031 C 292.667969 28.296875 294.03125 27.363281 295.449219 26.660156 C 296.863281 25.953125 298.175781 25.601562 299.390625 25.601562 C 301.914062 25.601562 303.179688 27.0625 303.179688 29.984375 C 303.179688 31.75 302.671875 34.042969 301.664062 36.867188 C 300.703125 39.636719 299.441406 42.964844 297.875 46.84375 C 296.863281 49.316406 296.027344 51.53125 295.371094 53.5 C 294.714844 55.464844 294.386719 57.253906 294.386719 58.867188 C 294.386719 59.925781 294.539062 60.679688 294.839844 61.132812 C 295.144531 61.539062 295.523438 61.738281 295.976562 61.738281 Z M 295.976562 61.738281 " fill-opacity="1" fill-rule="nonzero"/><path fill="#3e503a" d="M 273.296875 32.632812 L 267.003906 53.421875 C 266.144531 56.144531 265.691406 58.210938 265.640625 59.621094 C 265.640625 60.078125 265.742188 60.480469 265.945312 60.832031 C 266.195312 61.183594 266.601562 61.363281 267.15625 61.363281 C 268.066406 61.363281 269.027344 61.035156 270.035156 60.378906 C 271.046875 59.671875 272.007812 58.867188 272.917969 57.960938 C 273.878906 57 274.710938 56.042969 275.417969 55.085938 C 276.175781 54.078125 276.730469 53.296875 277.085938 52.742188 L 279.285156 54.027344 C 278.425781 55.742188 277.339844 57.40625 276.023438 59.019531 C 274.710938 60.578125 273.320312 61.964844 271.855469 63.175781 C 270.390625 64.386719 268.898438 65.367188 267.382812 66.125 C 265.917969 66.828125 264.578125 67.183594 263.367188 67.183594 C 261.597656 67.183594 260.308594 66.804688 259.5 66.050781 C 258.742188 65.292969 258.363281 64.03125 258.363281 62.269531 C 258.363281 61.261719 258.542969 59.898438 258.894531 58.1875 C 259.25 56.472656 259.855469 54.128906 260.714844 51.15625 L 266.324219 32.632812 L 259.804688 32.632812 L 260.789062 29.15625 L 267.382812 29.15625 L 271.324219 16.152344 L 278.296875 16.152344 L 274.355469 29.15625 L 282.617188 29.15625 L 281.558594 32.632812 Z M 273.296875 32.632812 " fill-opacity="1" fill-rule="nonzero"/><path fill="#3e503a" d="M 157.691406 41.25 C 158.351562 39.386719 158.855469 37.898438 159.210938 36.789062 C 159.613281 35.679688 159.917969 34.824219 160.117188 34.21875 C 160.320312 33.566406 160.445312 33.0625 160.496094 32.707031 C 160.546875 32.355469 160.574219 32.027344 160.574219 31.726562 C 160.574219 30.261719 160.066406 29.53125 159.058594 29.53125 C 157.691406 29.53125 156.074219 30.464844 154.207031 32.328125 C 152.335938 34.144531 150.316406 36.789062 148.144531 40.269531 C 147.382812 41.476562 146.675781 42.710938 146.019531 43.972656 C 145.363281 45.183594 144.65625 46.71875 143.898438 48.585938 C 143.140625 50.398438 142.253906 52.71875 141.246094 55.539062 C 140.234375 58.363281 138.945312 61.992188 137.378906 66.425781 L 130.253906 66.425781 L 135.257812 51.230469 C 136.316406 48.003906 137.203125 45.308594 137.910156 43.140625 C 138.617188 40.921875 139.171875 39.082031 139.578125 37.621094 C 139.980469 36.160156 140.261719 35 140.410156 34.144531 C 140.613281 33.289062 140.714844 32.582031 140.714844 32.027344 C 140.714844 30.363281 140.082031 29.53125 138.820312 29.53125 C 137.808594 29.53125 136.597656 30.113281 135.179688 31.269531 C 133.765625 32.429688 132.328125 33.941406 130.859375 35.808594 C 129.394531 37.671875 127.980469 39.789062 126.617188 42.160156 C 125.300781 44.476562 124.191406 46.847656 123.28125 49.265625 L 116.914062 66.425781 L 110.242188 66.425781 L 115.851562 49.113281 C 116.8125 46.191406 117.597656 43.746094 118.203125 41.78125 C 118.808594 39.765625 119.289062 38.125 119.644531 36.867188 C 119.996094 35.554688 120.25 34.523438 120.402344 33.765625 C 120.550781 33.011719 120.628906 32.378906 120.628906 31.875 C 120.628906 30.464844 120.199219 29.757812 119.339844 29.757812 C 118.785156 29.757812 118.125 30.085938 117.371094 30.742188 C 116.660156 31.398438 115.929688 32.304688 115.171875 33.464844 C 114.414062 34.574219 113.65625 35.859375 112.898438 37.320312 C 112.1875 38.78125 111.558594 40.320312 111.003906 41.929688 L 108.726562 40.796875 C 110.496094 35.605469 112.46875 31.777344 114.640625 29.304688 C 116.863281 26.835938 119.390625 25.601562 122.21875 25.601562 C 123.835938 25.601562 124.972656 26.054688 125.632812 26.960938 C 126.339844 27.871094 126.691406 29.382812 126.691406 31.5 C 126.691406 33.917969 126.261719 36.234375 125.402344 38.453125 L 125.632812 38.679688 C 130.332031 29.960938 135.308594 25.601562 140.5625 25.601562 C 142.535156 25.601562 144.074219 26.207031 145.1875 27.414062 C 146.296875 28.574219 146.855469 30.214844 146.855469 32.328125 C 146.855469 33.035156 146.753906 33.84375 146.550781 34.75 C 146.398438 35.65625 146.070312 36.992188 145.566406 38.757812 L 145.71875 38.984375 C 147.132812 36.5625 148.472656 34.523438 149.734375 32.859375 C 151.046875 31.144531 152.3125 29.757812 153.523438 28.699219 C 154.738281 27.640625 155.949219 26.859375 157.164062 26.355469 C 158.425781 25.851562 159.714844 25.601562 161.027344 25.601562 C 163 25.601562 164.464844 26.128906 165.425781 27.1875 C 166.433594 28.246094 166.941406 29.910156 166.941406 32.179688 C 166.941406 32.882812 166.863281 33.664062 166.710938 34.523438 C 166.5625 35.328125 166.332031 36.3125 166.03125 37.472656 C 165.726562 38.578125 165.324219 39.890625 164.816406 41.402344 C 164.363281 42.863281 163.808594 44.601562 163.148438 46.621094 C 162.292969 49.191406 161.609375 51.257812 161.105469 52.820312 C 160.597656 54.332031 160.21875 55.539062 159.96875 56.449219 C 159.714844 57.355469 159.539062 58.035156 159.4375 58.488281 C 159.386719 58.941406 159.359375 59.394531 159.359375 59.851562 C 159.359375 60.808594 159.613281 61.285156 160.117188 61.285156 C 160.875 61.285156 162.011719 60.582031 163.527344 59.167969 C 165.046875 57.707031 167.015625 55.464844 169.441406 52.441406 L 171.414062 53.5 C 170.554688 55.164062 169.441406 56.824219 168.078125 58.488281 C 166.761719 60.101562 165.375 61.5625 163.910156 62.875 C 162.441406 64.132812 160.976562 65.167969 159.511719 65.972656 C 158.097656 66.78125 156.859375 67.183594 155.796875 67.183594 C 154.535156 67.183594 153.523438 66.652344 152.765625 65.59375 C 152.058594 64.488281 151.707031 63.023438 151.707031 61.210938 C 151.707031 60.605469 151.753906 59.925781 151.855469 59.167969 C 152.007812 58.414062 152.285156 57.328125 152.691406 55.917969 C 153.144531 54.507812 153.75 52.640625 154.507812 50.324219 C 155.316406 48.003906 156.378906 44.980469 157.691406 41.25 Z M 157.691406 41.25 " fill-opacity="1" fill-rule="nonzero"/><path fill="#3e503a" d="M 81.9375 67.183594 C 80.21875 67.183594 78.601562 66.855469 77.085938 66.199219 C 75.621094 65.496094 74.332031 64.488281 73.222656 63.175781 C 72.109375 61.867188 71.226562 60.277344 70.570312 58.414062 C 69.910156 56.496094 69.582031 54.355469 69.582031 51.988281 C 69.582031 48.710938 70.1875 45.484375 71.402344 42.308594 C 72.664062 39.132812 74.308594 36.3125 76.328125 33.84375 C 78.351562 31.371094 80.648438 29.382812 83.226562 27.871094 C 85.855469 26.355469 88.558594 25.601562 91.335938 25.601562 C 93.15625 25.601562 94.824219 25.953125 96.339844 26.660156 C 97.90625 27.316406 99.21875 28.296875 100.28125 29.609375 C 101.390625 30.867188 102.25 32.40625 102.855469 34.21875 C 103.515625 35.984375 103.84375 37.949219 103.84375 40.117188 C 103.84375 43.292969 103.210938 46.492188 101.949219 49.71875 C 100.683594 52.945312 99.015625 55.84375 96.945312 58.414062 C 94.925781 60.984375 92.601562 63.101562 89.972656 64.761719 C 87.34375 66.375 84.667969 67.183594 81.9375 67.183594 Z M 82.394531 63.402344 C 84.109375 63.402344 85.804688 62.519531 87.472656 60.757812 C 89.1875 58.992188 90.703125 56.773438 92.019531 54.101562 C 93.382812 51.382812 94.46875 48.433594 95.277344 45.257812 C 96.136719 42.082031 96.566406 39.058594 96.566406 36.183594 C 96.566406 33.515625 96.085938 31.675781 95.125 30.667969 C 94.214844 29.660156 92.953125 29.15625 91.335938 29.15625 C 90.226562 29.15625 89.085938 29.558594 87.925781 30.363281 C 86.8125 31.121094 85.753906 32.179688 84.742188 33.539062 C 83.730469 34.898438 82.769531 36.460938 81.863281 38.226562 C 81.003906 39.992188 80.246094 41.855469 79.589844 43.820312 C 78.929688 45.785156 78.425781 47.804688 78.070312 49.871094 C 77.71875 51.886719 77.542969 53.828125 77.542969 55.691406 C 77.542969 58.515625 77.996094 60.503906 78.90625 61.664062 C 79.816406 62.824219 80.976562 63.402344 82.394531 63.402344 Z M 82.394531 63.402344 " fill-opacity="1" fill-rule="nonzero"/><path fill="#3e503a" d="M 52.0625 41.25 C 52.71875 39.386719 53.226562 37.898438 53.578125 36.789062 C 53.984375 35.679688 54.285156 34.824219 54.488281 34.21875 C 54.691406 33.5625 54.816406 33.058594 54.867188 32.707031 C 54.917969 32.355469 54.945312 32.027344 54.945312 31.726562 C 54.945312 30.261719 54.4375 29.53125 53.425781 29.53125 C 52.0625 29.53125 50.445312 30.464844 48.578125 32.328125 C 46.707031 34.144531 44.683594 36.789062 42.511719 40.269531 C 41.753906 41.476562 41.046875 42.710938 40.390625 43.972656 C 39.734375 45.183594 39.027344 46.71875 38.269531 48.585938 C 37.511719 50.398438 36.625 52.71875 35.613281 55.539062 C 34.605469 58.363281 33.316406 61.992188 31.75 66.425781 L 24.625 66.425781 L 29.628906 51.230469 C 30.6875 48.003906 31.574219 45.308594 32.28125 43.140625 C 32.988281 40.921875 33.542969 39.082031 33.949219 37.621094 C 34.351562 36.160156 34.628906 35 34.78125 34.144531 C 34.984375 33.289062 35.085938 32.582031 35.085938 32.027344 C 35.085938 30.363281 34.453125 29.53125 33.191406 29.53125 C 32.179688 29.53125 30.964844 30.113281 29.550781 31.269531 C 28.136719 32.429688 26.695312 33.941406 25.230469 35.808594 C 23.765625 37.671875 22.351562 39.789062 20.984375 42.15625 C 19.671875 44.476562 18.5625 46.84375 17.652344 49.265625 L 11.285156 66.425781 L 4.613281 66.425781 L 10.222656 49.113281 C 11.183594 46.191406 11.964844 43.746094 12.574219 41.78125 C 13.179688 39.765625 13.660156 38.125 14.011719 36.867188 C 14.367188 35.554688 14.621094 34.523438 14.769531 33.765625 C 14.921875 33.011719 15 32.378906 15 31.875 C 15 30.464844 14.570312 29.757812 13.710938 29.757812 C 13.152344 29.757812 12.496094 30.085938 11.738281 30.742188 C 11.03125 31.398438 10.300781 32.304688 9.539062 33.464844 C 8.78125 34.574219 8.023438 35.859375 7.265625 37.320312 C 6.558594 38.78125 5.929688 40.320312 5.371094 41.929688 L 3.097656 40.796875 C 4.867188 35.605469 6.835938 31.773438 9.011719 29.304688 C 11.234375 26.835938 13.761719 25.601562 16.589844 25.601562 C 18.207031 25.601562 19.34375 26.054688 20 26.960938 C 20.707031 27.867188 21.0625 29.382812 21.0625 31.496094 C 21.0625 33.917969 20.632812 36.234375 19.773438 38.453125 L 20 38.679688 C 24.699219 29.960938 29.675781 25.601562 34.933594 25.601562 C 36.902344 25.601562 38.445312 26.207031 39.554688 27.414062 C 40.667969 28.574219 41.222656 30.210938 41.222656 32.328125 C 41.222656 33.035156 41.121094 33.839844 40.921875 34.75 C 40.769531 35.65625 40.441406 36.992188 39.933594 38.757812 L 40.085938 38.984375 C 41.5 36.5625 42.839844 34.523438 44.105469 32.859375 C 45.417969 31.144531 46.679688 29.757812 47.894531 28.699219 C 49.105469 27.640625 50.320312 26.859375 51.53125 26.355469 C 52.796875 25.851562 54.085938 25.601562 55.398438 25.601562 C 57.367188 25.601562 58.835938 26.128906 59.792969 27.1875 C 60.804688 28.246094 61.308594 29.910156 61.308594 32.179688 C 61.308594 32.882812 61.234375 33.664062 61.082031 34.523438 C 60.929688 35.328125 60.703125 36.3125 60.402344 37.46875 C 60.097656 38.578125 59.691406 39.890625 59.1875 41.402344 C 58.734375 42.863281 58.175781 44.601562 57.519531 46.617188 C 56.660156 49.1875 55.980469 51.257812 55.472656 52.816406 C 54.96875 54.332031 54.589844 55.539062 54.335938 56.445312 C 54.085938 57.355469 53.90625 58.035156 53.804688 58.488281 C 53.753906 58.941406 53.730469 59.394531 53.730469 59.847656 C 53.730469 60.808594 53.984375 61.285156 54.488281 61.285156 C 55.246094 61.285156 56.382812 60.578125 57.898438 59.167969 C 59.414062 57.707031 61.386719 55.464844 63.8125 52.441406 L 65.78125 53.5 C 64.921875 55.160156 63.8125 56.824219 62.445312 58.488281 C 61.132812 60.101562 59.742188 61.5625 58.277344 62.875 C 56.8125 64.132812 55.347656 65.167969 53.882812 65.972656 C 52.46875 66.78125 51.230469 67.183594 50.167969 67.183594 C 48.90625 67.183594 47.894531 66.652344 47.136719 65.59375 C 46.429688 64.488281 46.074219 63.023438 46.074219 61.210938 C 46.074219 60.605469 46.125 59.925781 46.226562 59.167969 C 46.378906 58.414062 46.65625 57.328125 47.058594 55.917969 C 47.515625 54.507812 48.121094 52.640625 48.878906 50.324219 C 49.6875 48.003906 50.75 44.980469 52.0625 41.25 Z M 52.0625 41.25 " fill-opacity="1" fill-rule="nonzero"/><g clip-path="url(#93385289c2)"><path fill="#eae5df" d="M 447.75 50.96875 L 446.898438 53.433594 C 445.136719 58.542969 443.125 62.550781 440.757812 65.253906 C 438.386719 67.980469 435.472656 69.542969 432.074219 69.542969 C 429.710938 69.542969 427.585938 68.765625 426.046875 66.992188 L 426.003906 66.949219 C 425.167969 65.9375 424.636719 64.738281 424.335938 63.421875 C 423.203125 64.59375 421.980469 65.625 420.65625 66.503906 L 420.628906 66.519531 C 417.636719 68.453125 414.589844 69.542969 411.535156 69.542969 C 409.875 69.542969 408.296875 69.191406 406.835938 68.464844 L 406.800781 68.445312 L 406.761719 68.425781 C 405.367188 67.667969 404.167969 66.65625 403.167969 65.40625 L 403.148438 65.386719 L 403.132812 65.363281 C 402.160156 64.089844 401.390625 62.632812 400.816406 61.023438 L 400.796875 60.972656 L 400.785156 60.925781 C 400.25 59.207031 399.996094 57.355469 399.996094 55.386719 C 399.996094 52.980469 400.359375 50.519531 401.070312 48.015625 L 401.078125 47.984375 C 401.832031 45.464844 402.828125 43.050781 404.066406 40.742188 L 404.070312 40.730469 L 404.074219 40.722656 C 405.351562 38.386719 406.816406 36.183594 408.46875 34.109375 C 410.117188 32.039062 411.863281 30.214844 413.707031 28.644531 L 414.425781 28.050781 C 416.105469 26.695312 417.835938 25.589844 419.617188 24.75 L 419.628906 24.742188 L 419.644531 24.738281 C 421.769531 23.761719 423.925781 23.238281 426.085938 23.238281 C 428.019531 23.238281 429.894531 23.589844 431.335938 24.667969 L 431.339844 24.667969 C 431.398438 24.710938 431.460938 24.757812 431.519531 24.804688 L 434.722656 13.46875 L 434.730469 13.4375 C 435.125 12.105469 435.414062 11.027344 435.601562 10.195312 C 435.675781 9.847656 435.730469 9.570312 435.765625 9.351562 C 435.023438 9.191406 433.582031 9.0625 431.242188 9.0625 L 428.136719 9.0625 L 430.273438 1.3125 L 449.808594 1.3125 L 440.578125 34.910156 C 439.519531 38.832031 438.640625 42.175781 437.933594 44.933594 C 437.234375 47.675781 436.65625 49.992188 436.210938 51.878906 L 435.9375 53.183594 C 435.6875 54.417969 435.515625 55.453125 435.414062 56.285156 C 435.265625 57.441406 435.199219 58.34375 435.199219 59.015625 C 435.199219 59.144531 435.203125 59.261719 435.210938 59.367188 C 435.511719 59.082031 435.886719 58.644531 436.328125 57.996094 L 436.339844 57.976562 L 436.355469 57.960938 C 437.496094 56.34375 438.566406 54.125 439.53125 51.238281 L 440.21875 49.1875 Z M 428.039062 34.597656 C 428.039062 33.296875 427.78125 32.636719 427.566406 32.332031 L 427.542969 32.304688 L 427.527344 32.277344 C 427.453125 32.167969 427.324219 31.96875 426.617188 31.96875 C 425.84375 31.96875 424.933594 32.21875 423.863281 32.890625 L 423.851562 32.898438 L 423.84375 32.90625 C 422.761719 33.566406 421.644531 34.515625 420.5 35.792969 L 420.488281 35.808594 L 420.472656 35.824219 C 419.332031 37.054688 418.234375 38.515625 417.195312 40.214844 C 416.199219 41.921875 415.320312 43.699219 414.558594 45.550781 C 413.796875 47.402344 413.179688 49.277344 412.703125 51.171875 C 412.285156 53.035156 412.085938 54.742188 412.085938 56.296875 C 412.085938 57.699219 412.425781 58.582031 412.898438 59.164062 C 413.316406 59.636719 413.84375 59.90625 414.71875 59.90625 L 414.71875 62.269531 L 414.4375 62.261719 C 413.144531 62.203125 412.082031 61.742188 411.253906 60.871094 L 411.082031 60.679688 C 410.226562 59.640625 409.773438 58.292969 409.71875 56.632812 L 409.714844 56.296875 C 409.714844 54.53125 409.945312 52.640625 410.398438 50.625 C 410.839844 48.859375 411.398438 47.117188 412.074219 45.390625 L 412.367188 44.652344 C 413.175781 42.6875 414.109375 40.796875 415.171875 38.980469 C 416.144531 37.394531 417.175781 35.980469 418.265625 34.738281 L 418.734375 34.21875 C 419.996094 32.808594 421.289062 31.699219 422.597656 30.890625 C 423.964844 30.035156 425.304688 29.609375 426.617188 29.609375 L 426.863281 29.613281 C 428.054688 29.667969 428.929688 30.117188 429.496094 30.96875 C 430.105469 31.824219 430.410156 33.035156 430.410156 34.597656 C 430.410156 36.210938 430.179688 38.023438 429.726562 40.039062 C 429.273438 42.007812 428.640625 44.023438 427.832031 46.089844 L 427.539062 46.84375 C 426.839844 48.601562 426.03125 50.339844 425.101562 52.0625 L 424.71875 52.769531 C 423.820312 54.402344 422.863281 55.878906 421.84375 57.203125 L 421.410156 57.757812 C 420.382812 59.019531 419.339844 60.070312 418.28125 60.90625 L 417.828125 61.226562 C 416.769531 61.921875 415.734375 62.269531 414.71875 62.269531 L 414.71875 59.90625 C 415.226562 59.90625 415.921875 59.714844 416.835938 59.03125 C 417.855469 58.222656 418.902344 57.144531 419.964844 55.765625 C 421.035156 54.371094 422.050781 52.773438 423.007812 50.960938 L 423.011719 50.953125 L 423.015625 50.941406 C 424.027344 49.066406 424.894531 47.171875 425.613281 45.257812 L 425.625 45.230469 C 426.390625 43.265625 426.988281 41.363281 427.414062 39.523438 C 427.839844 37.632812 428.039062 35.996094 428.039062 34.597656 Z M 438.214844 8.742188 C 438.214844 9.144531 438.113281 9.800781 437.910156 10.707031 L 437.742188 11.429688 C 437.554688 12.195312 437.308594 13.089844 437.003906 14.109375 L 432.605469 29.683594 C 431.75 28.273438 430.863281 27.238281 429.957031 26.582031 C 429.203125 26.011719 428.121094 25.6875 426.710938 25.617188 L 426.085938 25.601562 C 424.320312 25.601562 422.5 26.027344 420.628906 26.886719 C 418.8125 27.742188 417.015625 28.925781 415.25 30.4375 L 414.609375 31 C 413.121094 32.332031 411.691406 33.859375 410.320312 35.578125 C 408.753906 37.546875 407.367188 39.636719 406.152344 41.855469 L 405.726562 42.671875 C 404.761719 44.589844 403.96875 46.585938 403.347656 48.660156 L 403.117188 49.527344 C 402.613281 51.539062 402.363281 53.492188 402.363281 55.386719 L 402.375 56.042969 C 402.421875 57.554688 402.648438 58.949219 403.046875 60.226562 C 403.550781 61.636719 404.207031 62.871094 405.015625 63.929688 C 405.824219 64.9375 406.785156 65.746094 407.898438 66.351562 C 408.871094 66.835938 409.917969 67.109375 411.046875 67.167969 L 411.535156 67.183594 C 413.855469 67.183594 416.289062 66.40625 418.832031 64.855469 L 419.34375 64.535156 C 422.070312 62.722656 424.394531 60.152344 426.316406 56.824219 L 426.921875 56.976562 C 426.769531 57.53125 426.644531 58.109375 426.542969 58.714844 C 426.441406 59.320312 426.390625 59.898438 426.390625 60.453125 C 426.390625 62.621094 426.871094 64.285156 427.832031 65.445312 C 428.84375 66.601562 430.253906 67.183594 432.074219 67.183594 C 434.652344 67.183594 436.953125 66.023438 438.972656 63.703125 C 441.046875 61.335938 442.941406 57.65625 444.660156 52.667969 L 441.777344 51.988281 C 440.765625 55.011719 439.605469 57.457031 438.289062 59.320312 C 437.027344 61.183594 435.84375 62.117188 434.730469 62.117188 L 434.527344 62.105469 C 434.125 62.0625 433.785156 61.894531 433.503906 61.597656 L 433.363281 61.4375 C 433.011719 60.984375 432.832031 60.175781 432.832031 59.015625 C 432.832031 58.410156 432.878906 57.695312 432.960938 56.863281 L 433.0625 55.992188 C 433.210938 54.785156 433.488281 53.246094 433.894531 51.382812 C 434.351562 49.464844 434.929688 47.121094 435.636719 44.347656 C 436.347656 41.578125 437.226562 38.226562 438.289062 34.292969 L 446.703125 3.675781 L 432.074219 3.675781 L 431.242188 6.699219 C 433.867188 6.699219 435.6875 6.851562 436.699219 7.152344 C 437.710938 7.457031 438.214844 7.984375 438.214844 8.742188 Z M 438.214844 8.742188 " fill-opacity="1" fill-rule="nonzero"/></g><g clip-path="url(#bcb8f4bc76)"><path fill="#eae5df" d="M 395.941406 30.664062 C 395.941406 28.75 395.609375 27.441406 394.953125 26.734375 C 394.386719 26.027344 393.527344 25.648438 392.382812 25.605469 L 392.148438 25.601562 C 390.835938 25.601562 389.445312 26.003906 387.980469 26.808594 C 386.515625 27.566406 385.101562 28.523438 383.734375 29.683594 L 383.230469 30.121094 C 382.0625 31.160156 380.996094 32.273438 380.023438 33.460938 C 378.960938 34.824219 378.125 36.058594 377.519531 37.167969 L 379.71875 38.527344 C 379.871094 38.226562 380.105469 37.839844 380.429688 37.367188 L 380.78125 36.863281 C 381.160156 36.335938 381.582031 35.804688 382.042969 35.277344 L 382.523438 34.746094 C 383.179688 34.042969 383.835938 33.4375 384.496094 32.933594 C 385.152344 32.378906 385.757812 32.101562 386.3125 32.101562 C 386.566406 32.101562 386.792969 32.226562 386.996094 32.480469 C 387.246094 32.679688 387.375 33.136719 387.375 33.839844 L 387.367188 34.117188 C 387.332031 34.789062 387.183594 35.65625 386.917969 36.714844 L 386.796875 37.1875 C 386.488281 38.328125 386.023438 39.757812 385.402344 41.476562 L 381.992188 51.15625 C 381.082031 53.726562 380.375 55.867188 379.871094 57.582031 C 379.414062 59.242188 379.1875 60.808594 379.1875 62.269531 L 379.203125 62.90625 C 379.28125 64.339844 379.628906 65.386719 380.25 66.046875 C 381.007812 66.804688 382.117188 67.183594 383.582031 67.183594 C 385.148438 67.183594 386.667969 66.828125 388.140625 66.121094 L 388.4375 65.972656 C 389.804688 65.222656 391.078125 64.339844 392.257812 63.320312 L 392.753906 62.875 C 394.070312 61.613281 395.230469 60.253906 396.242188 58.789062 C 397.171875 57.511719 397.925781 56.328125 398.507812 55.242188 L 398.746094 54.78125 L 396.46875 53.496094 C 396.167969 54 395.710938 54.707031 395.105469 55.613281 C 394.5 56.472656 393.816406 57.328125 393.058594 58.1875 L 392.484375 58.808594 C 391.90625 59.414062 391.316406 59.960938 390.710938 60.453125 C 389.902344 61.058594 389.117188 61.359375 388.359375 61.359375 C 387.875 61.359375 387.503906 61.226562 387.25 60.957031 L 387.148438 60.832031 C 386.925781 60.523438 386.800781 60.175781 386.773438 59.789062 L 386.769531 59.621094 C 386.769531 59.269531 386.820312 58.816406 386.917969 58.261719 C 387.070312 57.707031 387.222656 57.152344 387.375 56.597656 C 387.574219 55.992188 387.753906 55.4375 387.90625 54.933594 L 388.359375 53.726562 L 391.164062 46.089844 C 392.578125 42.207031 393.714844 39.03125 394.574219 36.5625 C 395.425781 34.246094 395.878906 32.375 395.933594 30.945312 Z M 401.394531 8.511719 C 401.394531 7.285156 400.996094 6.210938 400.199219 5.292969 L 400.03125 5.113281 C 399.125 4.152344 397.960938 3.675781 396.546875 3.675781 C 395.230469 3.675781 394.121094 4.152344 393.210938 5.113281 C 392.300781 6.070312 391.847656 7.230469 391.847656 8.589844 L 391.851562 8.84375 C 391.90625 10.089844 392.359375 11.113281 393.210938 11.917969 C 394.109375 12.71875 395.144531 13.144531 396.3125 13.195312 L 396.546875 13.203125 C 397.859375 13.203125 398.996094 12.746094 399.957031 11.839844 C 400.917969 10.933594 401.394531 9.824219 401.394531 8.511719 Z M 398.308594 30.664062 C 398.308594 32.535156 397.746094 34.796875 396.8125 37.335938 C 395.945312 39.820312 394.808594 43.011719 393.390625 46.898438 L 393.386719 46.902344 L 390.582031 54.539062 L 390.558594 54.601562 C 390.476562 54.8125 390.339844 55.167969 390.148438 55.691406 C 390 56.179688 389.832031 56.707031 389.644531 57.273438 C 389.527344 57.699219 389.410156 58.125 389.296875 58.550781 C 389.964844 58 390.628906 57.363281 391.28125 56.625 C 391.984375 55.832031 392.601562 55.050781 393.152344 54.273438 C 393.742188 53.390625 394.167969 52.734375 394.4375 52.28125 L 395.628906 50.308594 L 401.867188 53.832031 L 400.863281 55.839844 C 400.183594 57.195312 399.273438 58.640625 398.160156 60.175781 C 397.066406 61.753906 395.808594 63.222656 394.398438 64.574219 L 394.363281 64.609375 C 392.90625 65.949219 391.308594 67.09375 389.574219 68.042969 L 389.546875 68.058594 L 389.523438 68.074219 C 387.640625 69.042969 385.652344 69.542969 383.582031 69.542969 C 381.726562 69.542969 379.917969 69.058594 378.574219 67.71875 L 378.546875 67.691406 L 378.519531 67.660156 C 377.195312 66.246094 376.820312 64.238281 376.820312 62.269531 C 376.820312 60.5625 377.085938 58.789062 377.585938 56.957031 L 377.59375 56.9375 L 377.597656 56.914062 C 378.121094 55.144531 378.84375 52.960938 379.757812 50.367188 L 383.167969 40.695312 L 383.175781 40.679688 C 383.871094 38.746094 384.34375 37.242188 384.621094 36.140625 C 384.640625 36.070312 384.652344 35.996094 384.671875 35.929688 C 384.535156 36.066406 384.398438 36.207031 384.257812 36.355469 C 383.664062 36.996094 383.148438 37.625 382.707031 38.238281 C 382.222656 38.917969 381.953125 39.351562 381.835938 39.585938 L 380.675781 41.902344 L 374.367188 37.996094 L 375.441406 36.035156 C 376.125 34.785156 377.039062 33.441406 378.152344 32.011719 L 378.183594 31.972656 C 379.390625 30.496094 380.726562 29.132812 382.199219 27.882812 C 383.671875 26.632812 385.21875 25.582031 386.835938 24.742188 L 387.160156 24.570312 C 388.78125 23.726562 390.453125 23.238281 392.148438 23.238281 C 393.84375 23.238281 395.511719 23.75 396.691406 25.125 L 396.921875 25.398438 C 398.039062 26.800781 398.308594 28.785156 398.308594 30.664062 Z M 403.765625 8.511719 C 403.765625 10.476562 403.015625 12.207031 401.585938 13.554688 C 400.1875 14.875 398.46875 15.5625 396.546875 15.5625 C 394.6875 15.5625 393.015625 14.914062 391.632812 13.675781 L 391.605469 13.65625 L 391.585938 13.632812 C 390.15625 12.285156 389.476562 10.535156 389.476562 8.589844 C 389.476562 6.644531 390.152344 4.898438 391.492188 3.488281 C 392.84375 2.0625 394.578125 1.3125 396.546875 1.3125 C 398.558594 1.3125 400.359375 2.023438 401.75 3.488281 C 403.074219 4.878906 403.765625 6.59375 403.765625 8.511719 Z M 403.765625 8.511719 " fill-opacity="1" fill-rule="nonzero"/></g><path fill="#eae5df" d="M 367.503906 61.964844 C 367.503906 60.597656 367.058594 59.402344 366.171875 58.386719 L 365.988281 58.1875 C 364.976562 57.128906 363.6875 56.597656 362.121094 56.597656 C 360.65625 56.597656 359.417969 57.128906 358.410156 58.1875 L 358.222656 58.386719 C 357.335938 59.40625 356.890625 60.625 356.890625 62.042969 L 356.898438 62.324219 C 356.957031 63.707031 357.460938 64.847656 358.410156 65.746094 C 359.46875 66.703125 360.707031 67.183594 362.121094 67.183594 C 363.496094 67.183594 364.691406 66.742188 365.710938 65.855469 L 365.910156 65.671875 C 366.90625 64.726562 367.433594 63.582031 367.496094 62.238281 Z M 369.871094 61.964844 C 369.871094 64.074219 369.078125 65.929688 367.546875 67.382812 C 366.042969 68.808594 364.195312 69.546875 362.121094 69.546875 C 360.113281 69.546875 358.308594 68.84375 356.820312 67.5 L 356.777344 67.460938 C 355.253906 66.015625 354.523438 64.140625 354.523438 62.042969 C 354.523438 59.945312 355.246094 58.070312 356.691406 56.558594 C 358.152344 55.03125 360.007812 54.238281 362.121094 54.238281 C 364.285156 54.238281 366.210938 54.996094 367.703125 56.558594 C 369.132812 58.054688 369.871094 59.898438 369.871094 61.964844 Z M 369.871094 61.964844 " fill-opacity="1" fill-rule="nonzero"/><path fill="#eae5df" d="M 350.386719 54.707031 C 350.386719 52.1875 349.878906 49.996094 348.867188 48.128906 C 348.027344 46.5 347.089844 44.984375 346.058594 43.582031 L 345.609375 42.988281 C 344.398438 41.425781 343.285156 39.941406 342.273438 38.527344 C 341.375 37.160156 340.894531 35.699219 340.839844 34.152344 L 340.832031 33.839844 C 340.832031 32.519531 341.167969 31.394531 341.832031 30.46875 L 341.972656 30.289062 C 342.730469 29.332031 343.664062 28.851562 344.777344 28.851562 L 345.121094 28.867188 C 345.902344 28.945312 346.46875 29.292969 346.820312 29.910156 C 347.226562 30.617188 347.605469 31.398438 347.957031 32.253906 C 348.3125 33.0625 348.742188 33.816406 349.246094 34.523438 C 349.691406 35.09375 350.382812 35.417969 351.328125 35.488281 L 351.75 35.503906 C 352.757812 35.503906 353.542969 35.203125 354.097656 34.597656 C 354.628906 34.066406 354.925781 33.367188 354.992188 32.488281 L 355.007812 32.101562 C 355.007812 30.1875 354.199219 28.625 352.582031 27.414062 C 351.066406 26.28125 349.195312 25.679688 346.96875 25.609375 L 346.519531 25.601562 C 344.699219 25.601562 343.007812 25.902344 341.441406 26.507812 L 340.882812 26.726562 C 339.597656 27.265625 338.472656 28 337.5 28.925781 C 336.386719 29.933594 335.503906 31.144531 334.847656 32.554688 L 334.632812 33.089844 C 334.167969 34.355469 333.9375 35.714844 333.9375 37.167969 L 333.941406 37.589844 C 334 39.679688 334.503906 41.503906 335.453125 43.066406 C 336.464844 44.726562 337.574219 46.316406 338.789062 47.828125 C 340 49.289062 341.113281 50.800781 342.121094 52.363281 C 343.132812 53.925781 343.636719 55.714844 343.636719 57.730469 L 343.632812 58.085938 C 343.570312 59.835938 343.042969 61.230469 342.046875 62.269531 L 341.84375 62.460938 C 340.804688 63.390625 339.433594 63.855469 337.726562 63.855469 L 337.726562 61.492188 C 339.042969 61.492188 339.828125 61.128906 340.351562 60.613281 C 340.882812 60.046875 341.269531 59.179688 341.269531 57.730469 C 341.269531 56.128906 340.875 54.792969 340.132812 53.644531 C 339.171875 52.164062 338.117188 50.726562 336.964844 49.335938 L 336.9375 49.304688 C 335.660156 47.710938 334.492188 46.039062 333.425781 44.289062 C 332.15625 42.199219 331.566406 39.796875 331.566406 37.167969 C 331.566406 35.210938 331.925781 33.355469 332.667969 31.625 L 332.699219 31.5625 C 333.472656 29.894531 334.53125 28.4375 335.863281 27.21875 L 336.121094 26.980469 C 337.414062 25.8125 338.910156 24.921875 340.585938 24.304688 C 342.445312 23.585938 344.429688 23.238281 346.519531 23.238281 C 349.351562 23.238281 351.898438 23.953125 354.003906 25.523438 C 356.179688 27.152344 357.375 29.398438 357.375 32.101562 C 357.375 33.597656 356.941406 35.054688 355.84375 36.191406 L 355.84375 36.195312 C 354.742188 37.394531 353.257812 37.867188 351.75 37.867188 C 350.164062 37.867188 348.484375 37.40625 347.371094 35.960938 L 347.34375 35.929688 L 347.320312 35.894531 C 346.71875 35.054688 346.207031 34.15625 345.789062 33.203125 L 345.777344 33.175781 L 345.769531 33.152344 C 345.472656 32.433594 345.160156 31.792969 344.839844 31.21875 C 344.820312 31.21875 344.800781 31.214844 344.777344 31.214844 C 344.46875 31.214844 344.191406 31.296875 343.832031 31.753906 C 343.453125 32.230469 343.203125 32.875 343.203125 33.839844 C 343.203125 35.007812 343.527344 36.113281 344.234375 37.199219 C 345.214844 38.570312 346.296875 40.019531 347.480469 41.542969 C 348.777344 43.214844 349.933594 45.039062 350.953125 47.007812 C 352.179688 49.277344 352.753906 51.871094 352.753906 54.707031 C 352.753906 56.761719 352.300781 58.71875 351.394531 60.546875 C 350.550781 62.34375 349.378906 63.929688 347.894531 65.292969 L 347.890625 65.292969 C 346.460938 66.605469 344.800781 67.632812 342.9375 68.386719 C 341.042969 69.15625 339.074219 69.542969 337.042969 69.542969 C 333.6875 69.542969 330.722656 68.820312 328.382812 67.132812 L 328.367188 67.125 L 328.355469 67.113281 C 326.011719 65.375 324.746094 62.972656 324.746094 60.074219 C 324.746094 58.289062 325.148438 56.554688 326.261719 55.183594 L 326.273438 55.171875 C 327.453125 53.742188 329.070312 53.027344 330.90625 53.027344 C 332.597656 53.027344 334.15625 53.640625 335.285156 54.992188 C 336.195312 56.089844 336.671875 57.488281 336.894531 58.96875 L 336.976562 59.609375 L 336.976562 59.628906 C 337.046875 60.371094 337.136719 60.933594 337.230469 61.335938 C 337.238281 61.382812 337.253906 61.429688 337.261719 61.46875 C 337.378906 61.480469 337.53125 61.492188 337.726562 61.492188 L 337.726562 63.855469 L 337.308594 63.84375 C 336.375 63.789062 335.730469 63.539062 335.375 63.097656 C 335.023438 62.542969 334.769531 61.460938 334.617188 59.847656 C 334.324219 56.96875 333.152344 55.484375 331.105469 55.394531 L 330.90625 55.386719 C 329.742188 55.386719 328.808594 55.816406 328.101562 56.671875 C 327.445312 57.480469 327.113281 58.613281 327.113281 60.074219 L 327.125 60.46875 C 327.230469 62.40625 328.109375 63.988281 329.769531 65.214844 C 331.585938 66.527344 334.011719 67.183594 337.042969 67.183594 C 338.546875 67.183594 340.011719 66.929688 341.4375 66.429688 L 342.046875 66.199219 C 343.460938 65.625 344.722656 64.878906 345.828125 63.957031 L 346.292969 63.554688 C 347.554688 62.394531 348.539062 61.058594 349.246094 59.546875 C 349.957031 58.128906 350.335938 56.621094 350.378906 55.027344 Z M 350.386719 54.707031 " fill-opacity="1" fill-rule="nonzero"/><path fill="#eae5df" d="M 313.789062 59.546875 C 313.789062 59.09375 313.867188 58.488281 314.015625 57.730469 C 314.128906 57.125 314.300781 56.410156 314.53125 55.578125 L 314.777344 54.707031 C 314.953125 54.078125 315.15625 53.386719 315.382812 52.628906 L 316.140625 50.171875 C 316.695312 48.359375 317.378906 46.191406 318.1875 43.671875 L 323.792969 26.355469 L 316.746094 26.355469 L 311.136719 41.476562 L 310.765625 42.457031 C 309.875 44.726562 308.8125 46.921875 307.574219 49.039062 L 307.058594 49.933594 C 305.855469 51.996094 304.613281 53.863281 303.332031 55.539062 C 301.863281 57.40625 300.476562 58.917969 299.160156 60.074219 L 298.679688 60.464844 C 297.585938 61.3125 296.6875 61.738281 295.980469 61.738281 L 295.8125 61.730469 C 295.429688 61.6875 295.105469 61.484375 294.839844 61.132812 C 294.539062 60.679688 294.386719 59.925781 294.386719 58.867188 C 294.386719 57.253906 294.714844 55.464844 295.371094 53.496094 C 295.863281 52.023438 296.457031 50.40625 297.148438 48.648438 L 297.871094 46.84375 C 299.4375 42.964844 300.703125 39.636719 301.664062 36.863281 C 302.609375 34.21875 303.113281 32.039062 303.171875 30.324219 L 303.179688 29.984375 C 303.179688 27.246094 302.070312 25.789062 299.847656 25.617188 L 299.390625 25.601562 C 298.175781 25.601562 296.863281 25.953125 295.449219 26.660156 L 294.917969 26.933594 C 293.691406 27.601562 292.503906 28.441406 291.355469 29.457031 L 290.867188 29.898438 C 289.730469 30.945312 288.65625 32.109375 287.640625 33.386719 L 287.214844 33.9375 C 286.242188 35.214844 285.421875 36.492188 284.757812 37.773438 L 286.730469 38.832031 C 288.851562 36.261719 290.519531 34.394531 291.734375 33.238281 C 292.996094 32.078125 293.957031 31.496094 294.613281 31.496094 C 294.917969 31.496094 295.09375 31.597656 295.144531 31.800781 C 295.246094 31.953125 295.296875 32.128906 295.296875 32.328125 L 295.277344 32.65625 C 295.238281 33.003906 295.144531 33.425781 294.992188 33.917969 L 294.855469 34.445312 C 294.695312 35.011719 294.460938 35.695312 294.160156 36.488281 L 293.867188 37.328125 C 293.542969 38.21875 293.136719 39.246094 292.644531 40.417969 L 291.621094 43.027344 C 291.242188 43.984375 290.824219 45.03125 290.367188 46.164062 L 290.03125 47.023438 C 289.246094 49.039062 288.5 51.171875 287.792969 53.421875 L 287.507812 54.359375 C 286.890625 56.519531 286.578125 58.527344 286.578125 60.378906 C 286.578125 62.292969 287.035156 63.90625 287.945312 65.214844 C 288.902344 66.527344 290.570312 67.183594 292.945312 67.183594 C 294.058594 67.183594 295.195312 66.980469 296.355469 66.578125 C 297.519531 66.226562 298.707031 65.570312 299.917969 64.613281 C 301.132812 63.652344 302.371094 62.394531 303.632812 60.832031 C 304.945312 59.269531 306.285156 57.277344 307.648438 54.859375 L 307.878906 55.085938 C 307.675781 56.042969 307.523438 57.027344 307.421875 58.035156 C 307.371094 58.992188 307.347656 59.898438 307.347656 60.757812 L 307.359375 61.507812 C 307.421875 63.210938 307.695312 64.550781 308.179688 65.519531 C 308.738281 66.628906 309.796875 67.183594 311.363281 67.183594 C 312.511719 67.183594 313.683594 66.894531 314.871094 66.3125 L 315.382812 66.046875 C 316.746094 65.292969 318.035156 64.285156 319.246094 63.023438 C 320.351562 61.921875 321.378906 60.703125 322.332031 59.371094 L 322.734375 58.789062 C 323.796875 57.179688 324.652344 55.539062 325.3125 53.875 L 323.035156 52.742188 C 322.53125 53.902344 321.925781 55.011719 321.21875 56.070312 L 320.714844 56.8125 C 320.203125 57.539062 319.664062 58.222656 319.09375 58.867188 C 318.386719 59.671875 317.679688 60.328125 316.972656 60.832031 C 316.265625 61.285156 315.660156 61.511719 315.152344 61.511719 C 314.300781 61.511719 313.847656 60.9375 313.796875 59.785156 Z M 305.546875 29.984375 C 305.546875 32.140625 304.941406 34.71875 303.898438 37.636719 L 303.902344 37.636719 C 302.925781 40.457031 301.644531 43.824219 300.070312 47.726562 L 300.066406 47.738281 C 299.070312 50.171875 298.253906 52.339844 297.617188 54.246094 C 297.019531 56.035156 296.753906 57.566406 296.753906 58.867188 C 296.753906 58.890625 296.753906 58.914062 296.753906 58.9375 C 297 58.773438 297.289062 58.5625 297.613281 58.285156 C 298.785156 57.25 300.070312 55.859375 301.464844 54.082031 C 302.847656 52.273438 304.199219 50.207031 305.511719 47.878906 L 305.527344 47.847656 C 306.875 45.546875 308 43.15625 308.914062 40.667969 L 308.914062 40.65625 L 315.097656 23.996094 L 327.050781 23.996094 L 320.441406 44.390625 C 319.636719 46.902344 318.957031 49.058594 318.40625 50.863281 L 318.398438 50.878906 C 317.847656 52.628906 317.402344 54.117188 317.054688 55.34375 L 317.054688 55.355469 L 317.050781 55.367188 C 316.707031 56.539062 316.476562 57.464844 316.34375 58.167969 L 316.34375 58.179688 L 316.339844 58.195312 C 316.332031 58.238281 316.324219 58.28125 316.316406 58.324219 C 316.632812 58.039062 316.96875 57.703125 317.3125 57.308594 L 317.320312 57.300781 C 317.996094 56.535156 318.632812 55.695312 319.230469 54.78125 L 319.246094 54.757812 C 319.878906 53.816406 320.417969 52.828125 320.863281 51.800781 L 321.859375 49.515625 L 328.308594 52.730469 L 327.515625 54.742188 C 326.792969 56.566406 325.855469 58.351562 324.714844 60.085938 L 324.703125 60.101562 L 324.695312 60.113281 C 323.5625 61.78125 322.316406 63.296875 320.957031 64.660156 C 319.601562 66.070312 318.125 67.230469 316.53125 68.113281 C 314.882812 69.027344 313.148438 69.542969 311.363281 69.542969 C 309.179688 69.542969 307.128906 68.707031 306.0625 66.574219 C 305.519531 65.492188 305.214844 64.210938 305.074219 62.804688 C 303.863281 64.25 302.636719 65.480469 301.390625 66.464844 C 300.03125 67.535156 298.613281 68.34375 297.132812 68.808594 L 297.136719 68.808594 C 297.113281 68.816406 297.09375 68.820312 297.070312 68.828125 C 297.0625 68.832031 297.054688 68.835938 297.046875 68.835938 C 295.6875 69.296875 294.320312 69.542969 292.945312 69.542969 C 290.179688 69.542969 287.617188 68.773438 286.03125 66.609375 L 286.011719 66.585938 L 285.996094 66.5625 C 284.761719 64.78125 284.210938 62.675781 284.210938 60.378906 C 284.210938 57.964844 284.671875 55.398438 285.535156 52.703125 C 286.359375 50.085938 287.238281 47.613281 288.167969 45.289062 C 289.078125 43.023438 289.832031 41.117188 290.433594 39.566406 L 290.457031 39.503906 C 290.871094 38.527344 291.210938 37.660156 291.492188 36.90625 C 290.65625 37.835938 289.679688 38.972656 288.558594 40.332031 L 287.320312 41.832031 L 281.585938 38.75 L 282.65625 36.6875 C 283.492188 35.074219 284.539062 33.484375 285.785156 31.917969 C 287.027344 30.355469 288.359375 28.945312 289.785156 27.6875 C 291.238281 26.40625 292.769531 25.351562 294.386719 24.546875 C 296.035156 23.722656 297.714844 23.238281 299.390625 23.238281 C 301.117188 23.238281 302.8125 23.753906 304.023438 25.15625 C 305.175781 26.488281 305.546875 28.238281 305.546875 29.984375 Z M 305.546875 29.984375 " fill-opacity="1" fill-rule="nonzero"/><path fill="#eae5df" d="M 281.488281 13.789062 L 277.546875 26.792969 L 285.816406 26.792969 L 283.3125 34.996094 L 275.058594 34.996094 L 269.273438 54.105469 L 269.269531 54.117188 L 269.265625 54.132812 C 268.628906 56.140625 268.261719 57.664062 268.101562 58.753906 C 268.285156 58.671875 268.488281 58.5625 268.710938 58.417969 C 269.589844 57.800781 270.4375 57.09375 271.242188 56.289062 C 272.128906 55.40625 272.882812 54.535156 273.511719 53.6875 L 273.515625 53.675781 L 273.523438 53.667969 C 274.273438 52.675781 274.785156 51.949219 275.089844 51.472656 L 276.3125 49.554688 L 282.394531 53.109375 L 281.402344 55.085938 C 280.460938 56.964844 279.277344 58.773438 277.863281 60.507812 L 277.851562 60.523438 L 277.839844 60.535156 C 276.441406 62.199219 274.949219 63.691406 273.367188 64.996094 C 271.78125 66.308594 270.136719 67.394531 268.445312 68.238281 L 268.414062 68.253906 C 266.734375 69.0625 265.035156 69.546875 263.367188 69.546875 C 261.339844 69.546875 259.328125 69.125 257.882812 67.773438 L 257.855469 67.746094 L 257.824219 67.71875 C 256.410156 66.304688 255.996094 64.273438 255.996094 62.269531 C 255.996094 61.027344 256.207031 59.484375 256.574219 57.710938 C 256.945312 55.910156 257.574219 53.496094 258.4375 50.5 L 258.441406 50.488281 L 258.445312 50.472656 L 263.132812 34.996094 L 256.675781 34.996094 L 258.996094 26.792969 L 265.625 26.792969 L 269.566406 13.789062 Z M 258.367188 62.59375 C 258.414062 64.1875 258.789062 65.339844 259.5 66.050781 C 260.257812 66.757812 261.4375 67.136719 263.042969 67.179688 L 263.367188 67.183594 C 264.429688 67.183594 265.585938 66.914062 266.839844 66.375 L 267.382812 66.125 C 268.710938 65.464844 270.019531 64.628906 271.304688 63.621094 L 271.855469 63.175781 C 273.320312 61.964844 274.710938 60.578125 276.023438 59.015625 C 277.339844 57.40625 278.425781 55.742188 279.285156 54.027344 L 277.085938 52.742188 C 276.734375 53.296875 276.175781 54.078125 275.417969 55.085938 C 274.710938 56.042969 273.875 57.003906 272.917969 57.960938 L 272.574219 58.296875 C 271.765625 59.066406 270.921875 59.761719 270.039062 60.378906 C 269.027344 61.035156 268.066406 61.363281 267.15625 61.363281 L 266.953125 61.355469 C 266.5 61.316406 266.164062 61.140625 265.945312 60.832031 C 265.765625 60.523438 265.667969 60.175781 265.644531 59.789062 L 265.640625 59.625 C 265.683594 58.386719 266.039062 56.652344 266.703125 54.414062 L 267.003906 53.421875 L 273.296875 32.632812 L 281.558594 32.632812 L 282.621094 29.15625 L 274.355469 29.15625 L 278.296875 16.152344 L 271.324219 16.152344 L 267.382812 29.15625 L 260.789062 29.15625 L 259.804688 32.632812 L 266.324219 32.632812 L 260.714844 51.15625 L 260.117188 53.269531 C 259.566406 55.261719 259.160156 56.902344 258.894531 58.1875 L 258.769531 58.8125 C 258.5 60.234375 258.363281 61.386719 258.363281 62.269531 Z M 258.367188 62.59375 " fill-opacity="1" fill-rule="nonzero"/><path fill="#eae5df" d="M 138.34375 32.023438 C 137.988281 32.171875 137.445312 32.472656 136.683594 33.097656 C 135.4375 34.121094 134.113281 35.496094 132.726562 37.265625 C 131.34375 39.023438 129.992188 41.039062 128.675781 43.320312 C 127.421875 45.535156 126.363281 47.792969 125.5 50.09375 L 118.5625 68.789062 L 106.988281 68.789062 L 113.597656 48.386719 L 113.601562 48.378906 C 114.554688 45.472656 115.332031 43.046875 115.933594 41.101562 L 116.742188 38.375 C 116.980469 37.566406 117.1875 36.847656 117.363281 36.230469 C 117.671875 35.085938 117.890625 34.1875 118.027344 33.527344 C 117.753906 33.878906 117.460938 34.285156 117.15625 34.753906 L 117.140625 34.773438 L 117.128906 34.792969 C 116.4375 35.800781 115.734375 36.992188 115.015625 38.375 C 114.355469 39.742188 113.765625 41.179688 113.242188 42.699219 L 112.363281 45.25 L 105.820312 41.988281 L 106.484375 40.035156 C 108.296875 34.722656 110.390625 30.554688 112.859375 27.746094 L 112.878906 27.726562 C 115.464844 24.855469 118.597656 23.238281 122.21875 23.238281 C 124.214844 23.238281 126.21875 23.800781 127.5 25.511719 C 127.503906 25.519531 127.511719 25.53125 127.519531 25.539062 C 127.527344 25.550781 127.539062 25.5625 127.550781 25.578125 C 128.359375 26.652344 128.773438 28.019531 128.949219 29.5 C 132.410156 25.523438 136.253906 23.238281 140.5625 23.238281 C 143.035156 23.238281 145.25 24.015625 146.898438 25.78125 C 146.898438 25.785156 146.902344 25.789062 146.902344 25.789062 C 146.914062 25.800781 146.921875 25.808594 146.933594 25.820312 C 148.035156 26.984375 148.695312 28.410156 149.003906 29.984375 C 149.996094 28.804688 150.980469 27.78125 151.964844 26.921875 C 153.328125 25.730469 154.753906 24.796875 156.25 24.175781 L 156.265625 24.167969 L 156.28125 24.164062 C 157.816406 23.550781 159.402344 23.238281 161.027344 23.238281 C 163.382812 23.238281 165.582031 23.875 167.136719 25.558594 C 167.144531 25.566406 167.152344 25.570312 167.15625 25.578125 C 167.164062 25.585938 167.171875 25.59375 167.179688 25.605469 C 168.757812 27.289062 169.308594 29.648438 169.308594 32.179688 C 169.308594 33.050781 169.214844 33.96875 169.046875 34.933594 L 169.039062 34.957031 C 168.875 35.835938 168.632812 36.875 168.320312 38.066406 L 168.316406 38.09375 C 167.996094 39.257812 167.578125 40.609375 167.066406 42.148438 C 166.609375 43.613281 166.054688 45.347656 165.402344 47.351562 L 165.398438 47.359375 L 165.398438 47.367188 C 164.539062 49.933594 163.859375 51.992188 163.359375 53.542969 L 163.351562 53.566406 C 162.851562 55.0625 162.488281 56.226562 162.25 57.078125 C 162.246094 57.089844 162.242188 57.105469 162.238281 57.117188 C 163.605469 55.75 165.382812 53.714844 167.589844 50.964844 L 168.824219 49.425781 L 174.5625 52.507812 C 174.558594 52.527344 174.558594 52.546875 174.554688 52.570312 L 173.515625 54.582031 C 172.574219 56.410156 171.363281 58.210938 169.910156 59.984375 C 168.523438 61.683594 167.050781 63.238281 165.488281 64.632812 L 165.457031 64.664062 C 163.882812 66.015625 162.285156 67.144531 160.65625 68.042969 L 160.65625 68.039062 C 159.066406 68.941406 157.425781 69.546875 155.796875 69.546875 C 153.742188 69.546875 152.023438 68.625 150.839844 66.96875 L 150.800781 66.917969 L 150.769531 66.863281 C 149.742188 65.257812 149.335938 63.308594 149.335938 61.210938 C 149.335938 60.476562 149.398438 59.691406 149.507812 58.855469 L 149.519531 58.78125 L 149.535156 58.707031 C 149.703125 57.855469 150.003906 56.699219 150.414062 55.269531 L 150.421875 55.230469 L 150.433594 55.195312 C 150.890625 53.78125 151.5 51.910156 152.257812 49.589844 L 152.265625 49.570312 L 152.273438 49.546875 C 153.082031 47.226562 154.144531 44.199219 155.457031 40.46875 C 156.113281 38.613281 156.609375 37.148438 156.949219 36.074219 L 156.964844 36.027344 L 156.980469 35.984375 C 157.375 34.902344 157.667969 34.082031 157.859375 33.507812 C 158.046875 32.894531 158.128906 32.535156 158.152344 32.375 C 158.164062 32.308594 158.164062 32.246094 158.171875 32.183594 C 157.632812 32.46875 156.875 33.007812 155.882812 34 L 155.859375 34.023438 C 154.179688 35.652344 152.273438 38.121094 150.152344 41.519531 C 149.425781 42.675781 148.75 43.859375 148.121094 45.0625 L 148.101562 45.097656 C 147.503906 46.203125 146.832031 47.65625 146.09375 49.472656 L 146.085938 49.492188 C 145.347656 51.253906 144.480469 53.535156 143.476562 56.335938 C 142.464844 59.152344 141.179688 62.777344 139.613281 67.210938 L 139.058594 68.789062 L 126.984375 68.789062 L 133.007812 50.492188 C 134.066406 47.269531 134.949219 44.574219 135.65625 42.410156 C 136.359375 40.214844 136.902344 38.410156 137.292969 36.992188 C 137.691406 35.558594 137.945312 34.480469 138.078125 33.734375 L 138.089844 33.667969 L 138.105469 33.601562 C 138.289062 32.832031 138.34375 32.324219 138.34375 32.027344 Z M 140.714844 32.027344 C 140.714844 32.582031 140.613281 33.289062 140.410156 34.144531 C 140.257812 35 139.980469 36.160156 139.578125 37.621094 L 139.246094 38.789062 C 138.886719 40.027344 138.441406 41.476562 137.910156 43.140625 L 135.257812 51.230469 L 130.253906 66.425781 L 137.378906 66.425781 L 139.519531 60.378906 L 141.246094 55.539062 C 142.003906 53.421875 142.691406 51.589844 143.304688 50.039062 L 143.898438 48.585938 C 144.5625 46.953125 145.1875 45.570312 145.773438 44.441406 L 146.019531 43.972656 C 146.511719 43.027344 147.035156 42.097656 147.585938 41.179688 L 148.144531 40.269531 C 150.179688 37.007812 152.082031 34.480469 153.855469 32.679688 L 154.207031 32.328125 C 156.074219 30.464844 157.691406 29.53125 159.058594 29.53125 C 160.066406 29.53125 160.574219 30.261719 160.574219 31.726562 L 160.570312 31.957031 C 160.558594 32.191406 160.535156 32.441406 160.496094 32.707031 L 160.445312 33 C 160.378906 33.320312 160.269531 33.730469 160.117188 34.21875 L 159.738281 35.316406 C 159.589844 35.746094 159.410156 36.234375 159.207031 36.789062 L 158.914062 37.691406 C 158.59375 38.664062 158.183594 39.851562 157.691406 41.25 L 154.507812 50.324219 C 153.75 52.640625 153.144531 54.507812 152.691406 55.917969 L 152.410156 56.914062 C 152.15625 57.851562 151.96875 58.601562 151.855469 59.167969 L 151.789062 59.722656 C 151.734375 60.261719 151.703125 60.757812 151.703125 61.210938 C 151.703125 63.023438 152.058594 64.488281 152.765625 65.59375 C 153.476562 66.585938 154.410156 67.113281 155.5625 67.175781 L 155.796875 67.183594 C 156.859375 67.183594 158.097656 66.78125 159.511719 65.972656 C 160.792969 65.269531 162.078125 64.386719 163.359375 63.335938 L 163.90625 62.875 C 165.375 61.5625 166.761719 60.101562 168.078125 58.488281 C 169.441406 56.824219 170.550781 55.160156 171.410156 53.5 L 169.441406 52.441406 C 167.015625 55.464844 165.046875 57.707031 163.53125 59.167969 L 162.976562 59.664062 C 161.734375 60.746094 160.78125 61.285156 160.117188 61.285156 L 160.027344 61.28125 C 159.582031 61.222656 159.359375 60.746094 159.359375 59.847656 C 159.359375 59.394531 159.386719 58.941406 159.4375 58.488281 C 159.539062 58.035156 159.714844 57.355469 159.964844 56.445312 C 160.15625 55.765625 160.417969 54.914062 160.746094 53.894531 L 161.101562 52.820312 C 161.355469 52.039062 161.652344 51.128906 161.996094 50.097656 L 163.148438 46.621094 C 163.808594 44.601562 164.363281 42.863281 164.816406 41.402344 C 165.195312 40.269531 165.519531 39.246094 165.785156 38.339844 L 166.03125 37.472656 C 166.257812 36.601562 166.441406 35.832031 166.585938 35.160156 L 166.710938 34.523438 C 166.824219 33.878906 166.898438 33.277344 166.925781 32.722656 L 166.941406 32.179688 C 166.941406 30.050781 166.496094 28.457031 165.609375 27.394531 L 165.425781 27.1875 C 164.523438 26.195312 163.179688 25.667969 161.390625 25.605469 L 161.027344 25.601562 C 159.714844 25.601562 158.425781 25.851562 157.164062 26.355469 C 155.949219 26.859375 154.738281 27.644531 153.523438 28.699219 L 153.066406 29.113281 C 151.996094 30.109375 150.882812 31.359375 149.734375 32.859375 C 148.472656 34.523438 147.132812 36.5625 145.71875 38.980469 L 145.566406 38.757812 C 146.070312 36.992188 146.398438 35.65625 146.550781 34.75 C 146.726562 33.953125 146.828125 33.238281 146.851562 32.597656 L 146.855469 32.328125 C 146.855469 30.210938 146.296875 28.574219 145.1875 27.414062 C 144.144531 26.28125 142.722656 25.679688 140.925781 25.609375 L 140.5625 25.601562 C 135.308594 25.601562 130.332031 29.960938 125.632812 38.679688 L 125.402344 38.453125 C 126.261719 36.234375 126.691406 33.917969 126.691406 31.496094 C 126.691406 29.382812 126.339844 27.867188 125.632812 26.960938 C 125.015625 26.109375 123.976562 25.660156 122.519531 25.605469 L 122.21875 25.601562 C 119.390625 25.601562 116.863281 26.835938 114.640625 29.304688 C 112.46875 31.773438 110.496094 35.605469 108.726562 40.796875 L 111 41.929688 C 111.558594 40.316406 112.191406 38.78125 112.898438 37.320312 C 113.5625 36.039062 114.222656 34.898438 114.886719 33.886719 L 115.171875 33.464844 C 115.929688 32.304688 116.660156 31.398438 117.367188 30.742188 C 118.125 30.085938 118.785156 29.757812 119.339844 29.757812 C 120.199219 29.757812 120.628906 30.464844 120.628906 31.875 C 120.628906 32.378906 120.554688 33.007812 120.402344 33.765625 L 120.269531 34.386719 C 120.117188 35.054688 119.90625 35.882812 119.640625 36.867188 C 119.289062 38.125 118.808594 39.765625 118.203125 41.78125 C 117.597656 43.746094 116.8125 46.191406 115.851562 49.113281 L 110.242188 66.425781 L 116.914062 66.425781 L 123.28125 49.265625 C 124.191406 46.84375 125.304688 44.476562 126.617188 42.15625 C 127.808594 40.085938 129.042969 38.207031 130.3125 36.519531 L 130.859375 35.808594 C 132.144531 34.175781 133.40625 32.8125 134.648438 31.722656 L 135.179688 31.269531 C 136.597656 30.113281 137.808594 29.53125 138.820312 29.53125 L 139.046875 29.542969 C 140.160156 29.640625 140.714844 30.46875 140.714844 32.027344 Z M 140.714844 32.027344 " fill-opacity="1" fill-rule="nonzero"/><path fill="#eae5df" d="M 103.839844 40.117188 C 103.839844 37.949219 103.511719 35.984375 102.855469 34.21875 C 102.324219 32.632812 101.601562 31.257812 100.683594 30.09375 L 100.277344 29.609375 C 99.21875 28.296875 97.902344 27.3125 96.335938 26.660156 C 95.011719 26.042969 93.570312 25.695312 92.011719 25.617188 L 91.335938 25.601562 C 88.554688 25.601562 85.851562 26.355469 83.226562 27.871094 C 80.648438 29.382812 78.347656 31.371094 76.328125 33.839844 L 75.953125 34.308594 C 74.101562 36.664062 72.585938 39.332031 71.402344 42.308594 C 70.1875 45.484375 69.582031 48.710938 69.582031 51.988281 L 69.597656 52.863281 C 69.667969 54.886719 69.992188 56.734375 70.566406 58.410156 C 71.222656 60.277344 72.109375 61.863281 73.222656 63.175781 C 74.332031 64.484375 75.621094 65.492188 77.085938 66.199219 C 78.601562 66.855469 80.21875 67.183594 81.9375 67.183594 C 84.664062 67.183594 87.34375 66.375 89.972656 64.761719 C 92.597656 63.097656 94.921875 60.984375 96.945312 58.410156 C 98.886719 56.003906 100.472656 53.304688 101.707031 50.320312 L 101.945312 49.71875 C 103.210938 46.492188 103.839844 43.292969 103.839844 40.117188 Z M 94.195312 36.1875 C 94.195312 33.628906 93.703125 32.605469 93.410156 32.292969 L 93.363281 32.246094 C 92.988281 31.832031 92.417969 31.515625 91.335938 31.515625 C 90.824219 31.515625 90.152344 31.699219 89.277344 32.304688 L 89.257812 32.316406 C 88.414062 32.890625 87.535156 33.742188 86.644531 34.945312 C 85.726562 36.183594 84.835938 37.625 83.980469 39.28125 C 83.171875 40.941406 82.457031 42.703125 81.835938 44.566406 C 81.214844 46.417969 80.738281 48.316406 80.40625 50.265625 L 80.402344 50.277344 C 80.070312 52.171875 79.910156 53.976562 79.910156 55.691406 C 79.910156 58.402344 80.375 59.703125 80.769531 60.207031 C 81.253906 60.824219 81.742188 61.039062 82.390625 61.039062 L 82.390625 63.402344 L 82.128906 63.394531 C 80.917969 63.332031 79.902344 62.824219 79.078125 61.875 L 78.90625 61.664062 C 78.050781 60.578125 77.601562 58.757812 77.546875 56.210938 L 77.539062 55.691406 C 77.539062 54.058594 77.675781 52.371094 77.945312 50.621094 L 78.070312 49.871094 C 78.378906 48.0625 78.804688 46.292969 79.347656 44.5625 L 79.585938 43.820312 C 80.246094 41.855469 81.003906 39.992188 81.863281 38.226562 C 82.65625 36.683594 83.492188 35.292969 84.363281 34.058594 L 84.742188 33.539062 C 85.625 32.347656 86.546875 31.390625 87.511719 30.660156 L 87.925781 30.363281 C 89.085938 29.558594 90.222656 29.15625 91.335938 29.15625 L 91.632812 29.160156 C 93.109375 29.21875 94.273438 29.722656 95.125 30.664062 C 96.085938 31.671875 96.566406 33.515625 96.566406 36.1875 L 96.558594 36.726562 C 96.507812 39.4375 96.082031 42.28125 95.277344 45.257812 L 94.960938 46.4375 C 94.191406 49.167969 93.210938 51.722656 92.019531 54.101562 L 91.769531 54.597656 C 90.511719 57.050781 89.078125 59.101562 87.46875 60.757812 C 85.800781 62.519531 84.109375 63.402344 82.390625 63.402344 L 82.390625 61.039062 C 83.222656 61.039062 84.335938 60.625 85.746094 59.136719 L 85.757812 59.121094 L 85.769531 59.109375 C 87.28125 57.558594 88.664062 55.554688 89.890625 53.0625 L 89.898438 53.046875 C 91.183594 50.488281 92.210938 47.699219 92.980469 44.675781 L 92.984375 44.660156 L 92.988281 44.640625 C 93.800781 41.640625 94.195312 38.824219 94.195312 36.1875 Z M 106.210938 40.117188 C 106.210938 43.609375 105.511719 47.101562 104.152344 50.578125 C 102.808594 54.007812 101.027344 57.109375 98.808594 59.871094 C 96.628906 62.640625 94.105469 64.941406 91.238281 66.757812 L 91.226562 66.765625 L 91.210938 66.773438 C 88.261719 68.585938 85.160156 69.542969 81.9375 69.542969 C 79.90625 69.542969 77.96875 69.15625 76.144531 68.367188 L 76.097656 68.347656 L 76.058594 68.328125 C 74.273438 67.46875 72.726562 66.25 71.410156 64.703125 C 70.089844 63.140625 69.070312 61.292969 68.332031 59.195312 L 68.328125 59.175781 C 67.570312 56.976562 67.214844 54.570312 67.214844 51.988281 C 67.214844 48.414062 67.875 44.902344 69.1875 41.46875 L 69.199219 41.4375 C 70.546875 38.054688 72.308594 35.019531 74.492188 32.347656 C 76.679688 29.675781 79.1875 27.496094 82.023438 25.832031 L 82.03125 25.828125 L 82.042969 25.824219 C 84.996094 24.125 88.105469 23.238281 91.335938 23.238281 C 93.449219 23.238281 95.449219 23.648438 97.289062 24.496094 C 99.179688 25.292969 100.789062 26.492188 102.082031 28.074219 C 103.40625 29.585938 104.398438 31.386719 105.085938 33.425781 C 105.847656 35.480469 106.210938 37.722656 106.210938 40.117188 Z M 106.210938 40.117188 " fill-opacity="1" fill-rule="nonzero"/><path fill="#eae5df" d="M 32.714844 32.023438 C 32.359375 32.171875 31.8125 32.472656 31.054688 33.097656 C 29.804688 34.121094 28.484375 35.496094 27.097656 37.265625 C 25.714844 39.023438 24.363281 41.039062 23.046875 43.320312 C 21.792969 45.535156 20.734375 47.792969 19.871094 50.09375 L 12.933594 68.789062 L 1.359375 68.789062 L 7.96875 48.386719 L 7.972656 48.378906 C 8.925781 45.472656 9.703125 43.046875 10.304688 41.101562 L 11.113281 38.375 C 11.351562 37.566406 11.558594 36.847656 11.730469 36.230469 C 12.039062 35.085938 12.257812 34.1875 12.398438 33.527344 C 12.125 33.878906 11.832031 34.285156 11.523438 34.753906 L 11.5 34.792969 C 10.808594 35.800781 10.105469 36.992188 9.386719 38.375 C 8.726562 39.742188 8.136719 41.179688 7.613281 42.699219 L 6.734375 45.25 L 0.191406 41.988281 L 0.855469 40.035156 C 2.667969 34.722656 4.761719 30.554688 7.230469 27.746094 L 7.238281 27.738281 L 7.246094 27.726562 C 9.835938 24.855469 12.96875 23.238281 16.589844 23.238281 C 18.585938 23.238281 20.589844 23.800781 21.871094 25.511719 C 21.875 25.519531 21.882812 25.53125 21.890625 25.539062 C 21.898438 25.550781 21.910156 25.5625 21.921875 25.578125 L 21.917969 25.578125 C 22.730469 26.652344 23.144531 28.019531 23.320312 29.5 C 26.78125 25.523438 30.625 23.238281 34.933594 23.238281 C 37.40625 23.238281 39.621094 24.015625 41.265625 25.78125 C 41.269531 25.785156 41.273438 25.789062 41.273438 25.789062 C 41.285156 25.800781 41.292969 25.808594 41.304688 25.820312 C 42.40625 26.984375 43.066406 28.410156 43.375 29.984375 C 44.367188 28.804688 45.351562 27.78125 46.335938 26.921875 C 47.699219 25.730469 49.125 24.796875 50.621094 24.175781 L 50.636719 24.167969 L 50.652344 24.164062 C 52.1875 23.550781 53.773438 23.238281 55.398438 23.238281 C 57.753906 23.238281 59.953125 23.875 61.507812 25.558594 C 61.515625 25.566406 61.519531 25.570312 61.527344 25.578125 C 61.535156 25.585938 61.542969 25.59375 61.550781 25.605469 C 63.128906 27.289062 63.679688 29.648438 63.679688 32.179688 C 63.679688 33.050781 63.585938 33.96875 63.414062 34.933594 L 63.414062 34.945312 L 63.410156 34.957031 C 63.246094 35.835938 63.003906 36.875 62.691406 38.066406 L 62.6875 38.09375 C 62.367188 39.257812 61.949219 40.609375 61.433594 42.148438 C 60.980469 43.613281 60.425781 45.347656 59.773438 47.351562 L 59.769531 47.359375 L 59.769531 47.367188 C 58.910156 49.933594 58.230469 51.992188 57.730469 53.542969 L 57.726562 53.554688 L 57.71875 53.566406 C 57.21875 55.0625 56.855469 56.226562 56.621094 57.078125 C 56.617188 57.089844 56.613281 57.105469 56.609375 57.117188 C 57.972656 55.75 59.753906 53.714844 61.960938 50.964844 L 63.195312 49.425781 L 68.953125 52.519531 L 67.886719 54.582031 C 66.941406 56.410156 65.734375 58.210938 64.28125 59.984375 C 62.894531 61.683594 61.421875 63.238281 59.859375 64.632812 L 59.84375 64.648438 L 59.824219 64.664062 C 58.253906 66.015625 56.65625 67.144531 55.027344 68.042969 L 55.027344 68.039062 C 53.4375 68.941406 51.792969 69.546875 50.167969 69.546875 C 48.109375 69.546875 46.394531 68.625 45.207031 66.96875 L 45.171875 66.917969 L 45.136719 66.863281 C 44.113281 65.257812 43.707031 63.308594 43.707031 61.210938 C 43.707031 60.476562 43.765625 59.691406 43.878906 58.855469 L 43.890625 58.78125 L 43.90625 58.707031 C 44.074219 57.855469 44.375 56.699219 44.785156 55.269531 L 44.792969 55.230469 L 44.804688 55.195312 C 45.261719 53.78125 45.871094 51.910156 46.628906 49.589844 L 46.636719 49.570312 L 46.644531 49.546875 C 47.453125 47.226562 48.515625 44.199219 49.828125 40.46875 C 50.480469 38.613281 50.976562 37.148438 51.320312 36.074219 L 51.335938 36.027344 L 51.351562 35.984375 C 51.746094 34.902344 52.039062 34.082031 52.230469 33.507812 C 52.417969 32.894531 52.5 32.535156 52.523438 32.375 C 52.53125 32.308594 52.535156 32.246094 52.542969 32.183594 C 52.003906 32.46875 51.246094 33.007812 50.25 34 L 50.226562 34.023438 C 48.550781 35.652344 46.644531 38.121094 44.523438 41.519531 C 43.796875 42.675781 43.121094 43.859375 42.492188 45.0625 L 42.472656 45.097656 C 41.871094 46.203125 41.203125 47.65625 40.464844 49.472656 L 40.453125 49.492188 C 39.71875 51.253906 38.847656 53.535156 37.847656 56.335938 C 36.835938 59.152344 35.550781 62.777344 33.984375 67.210938 L 33.425781 68.789062 L 21.355469 68.789062 L 27.375 50.492188 C 28.4375 47.269531 29.320312 44.574219 30.027344 42.410156 C 30.726562 40.214844 31.273438 38.410156 31.664062 36.992188 C 32.0625 35.558594 32.316406 34.480469 32.449219 33.734375 L 32.460938 33.667969 L 32.476562 33.601562 C 32.65625 32.832031 32.714844 32.324219 32.714844 32.027344 Z M 35.085938 32.027344 C 35.085938 32.582031 34.984375 33.289062 34.78125 34.144531 C 34.628906 35 34.351562 36.160156 33.949219 37.621094 L 33.617188 38.789062 C 33.257812 40.027344 32.808594 41.476562 32.28125 43.140625 L 29.628906 51.230469 L 24.625 66.425781 L 31.75 66.425781 L 33.890625 60.378906 L 35.613281 55.539062 C 36.375 53.421875 37.058594 51.589844 37.675781 50.039062 L 38.269531 48.585938 C 38.929688 46.953125 39.554688 45.570312 40.140625 44.441406 L 40.390625 43.972656 C 40.882812 43.027344 41.40625 42.097656 41.953125 41.179688 L 42.511719 40.269531 C 44.550781 37.007812 46.453125 34.480469 48.222656 32.679688 L 48.578125 32.328125 C 50.445312 30.464844 52.0625 29.53125 53.425781 29.53125 C 54.4375 29.53125 54.945312 30.261719 54.945312 31.726562 L 54.9375 31.957031 C 54.929688 32.191406 54.90625 32.441406 54.867188 32.707031 L 54.816406 33 C 54.75 33.320312 54.640625 33.730469 54.488281 34.21875 L 54.109375 35.316406 C 53.957031 35.746094 53.78125 36.234375 53.578125 36.789062 L 53.285156 37.691406 C 52.964844 38.664062 52.554688 39.851562 52.0625 41.25 L 48.878906 50.324219 C 48.121094 52.640625 47.515625 54.507812 47.058594 55.917969 L 46.78125 56.914062 C 46.523438 57.851562 46.339844 58.601562 46.226562 59.167969 L 46.160156 59.722656 C 46.105469 60.261719 46.074219 60.757812 46.074219 61.210938 C 46.074219 63.023438 46.429688 64.488281 47.136719 65.59375 C 47.847656 66.585938 48.78125 67.113281 49.933594 67.175781 L 50.167969 67.183594 C 51.230469 67.183594 52.46875 66.78125 53.882812 65.972656 C 55.164062 65.269531 56.445312 64.386719 57.730469 63.335938 L 58.277344 62.875 C 59.742188 61.5625 61.132812 60.101562 62.449219 58.488281 C 63.8125 56.824219 64.921875 55.160156 65.78125 53.5 L 63.8125 52.441406 C 61.386719 55.464844 59.414062 57.707031 57.898438 59.167969 L 57.347656 59.664062 C 56.105469 60.746094 55.152344 61.285156 54.488281 61.285156 L 54.398438 61.28125 C 53.953125 61.222656 53.730469 60.746094 53.730469 59.847656 C 53.730469 59.394531 53.757812 58.941406 53.808594 58.488281 C 53.90625 58.035156 54.082031 57.355469 54.335938 56.445312 C 54.527344 55.765625 54.785156 54.914062 55.117188 53.894531 L 55.472656 52.820312 C 55.726562 52.039062 56.023438 51.128906 56.363281 50.097656 L 57.519531 46.621094 C 58.175781 44.601562 58.734375 42.863281 59.1875 41.402344 C 59.566406 40.269531 59.890625 39.246094 60.152344 38.339844 L 60.402344 37.472656 C 60.628906 36.601562 60.8125 35.832031 60.957031 35.160156 L 61.082031 34.523438 C 61.195312 33.878906 61.265625 33.277344 61.296875 32.722656 L 61.308594 32.179688 C 61.308594 30.050781 60.867188 28.457031 59.976562 27.394531 L 59.792969 27.1875 C 58.894531 26.195312 57.550781 25.667969 55.761719 25.605469 L 55.398438 25.601562 C 54.085938 25.601562 52.796875 25.851562 51.53125 26.355469 C 50.320312 26.859375 49.105469 27.644531 47.894531 28.699219 L 47.4375 29.113281 C 46.367188 30.109375 45.253906 31.359375 44.105469 32.859375 C 42.839844 34.523438 41.503906 36.5625 40.085938 38.980469 L 39.9375 38.757812 C 40.441406 36.992188 40.769531 35.65625 40.921875 34.75 C 41.097656 33.953125 41.199219 33.238281 41.21875 32.597656 L 41.222656 32.328125 C 41.222656 30.210938 40.667969 28.574219 39.558594 27.414062 C 38.515625 26.28125 37.09375 25.679688 35.296875 25.609375 L 34.933594 25.601562 C 29.675781 25.601562 24.699219 29.960938 20 38.679688 L 19.773438 38.453125 C 20.632812 36.234375 21.0625 33.917969 21.0625 31.496094 C 21.0625 29.382812 20.707031 27.867188 20 26.960938 C 19.386719 26.109375 18.347656 25.660156 16.886719 25.605469 L 16.589844 25.601562 C 13.761719 25.601562 11.234375 26.835938 9.011719 29.304688 C 6.835938 31.773438 4.867188 35.605469 3.097656 40.796875 L 5.371094 41.929688 C 5.929688 40.316406 6.558594 38.78125 7.269531 37.320312 C 7.929688 36.039062 8.59375 34.898438 9.257812 33.886719 L 9.542969 33.464844 C 10.300781 32.304688 11.03125 31.398438 11.738281 30.742188 C 12.496094 30.085938 13.152344 29.757812 13.710938 29.757812 C 14.570312 29.757812 15 30.464844 15 31.875 C 15 32.378906 14.921875 33.007812 14.773438 33.765625 L 14.636719 34.386719 C 14.488281 35.054688 14.277344 35.882812 14.011719 36.867188 C 13.660156 38.125 13.179688 39.765625 12.574219 41.78125 C 11.964844 43.746094 11.183594 46.191406 10.222656 49.113281 L 4.613281 66.425781 L 11.285156 66.425781 L 17.652344 49.265625 C 18.5625 46.84375 19.671875 44.476562 20.988281 42.15625 C 22.179688 40.085938 23.414062 38.207031 24.683594 36.519531 L 25.230469 35.808594 C 26.511719 34.175781 27.777344 32.8125 29.019531 31.722656 L 29.550781 31.269531 C 30.964844 30.113281 32.179688 29.53125 33.191406 29.53125 L 33.417969 29.542969 C 34.53125 29.640625 35.085938 30.46875 35.085938 32.027344 Z M 35.085938 32.027344 " fill-opacity="1" fill-rule="nonzero"/><g clip-path="url(#1cdfcb7adb)"><path fill="#eae5df" d="M 158.835938 36.714844 C 157.265625 36.871094 162.957031 33.980469 164.714844 33.980469 C 165.027344 32.285156 166.707031 29.617188 169.339844 28.738281 C 172.632812 27.644531 176.789062 27.488281 184.15625 38.59375 C 186.589844 34.136719 192.921875 24.890625 198.820312 23.578125 C 204.714844 22.265625 213.609375 14.011719 217.320312 10.050781 C 217.9375 13.371094 219.296875 18.097656 213.015625 26.074219 L 215.753906 22.875 C 216.425781 25.808594 218.835938 30.914062 211.453125 36.0625 L 213.480469 34.917969 C 212.957031 38.019531 208.445312 48.085938 197.40625 51.652344 C 198.480469 54.285156 204.164062 60.144531 218.339844 62.523438 C 216.277344 66.066406 210.578125 73.332031 204.308594 74.019531 L 194.742188 64.164062 C 187.476562 63.617188 172.429688 58.253906 170.359375 41.171875 C 170.046875 38.59375 170.15625 37.144531 167.144531 36.324219 C 164.132812 35.507812 160.402344 36.558594 158.835938 36.714844 Z M 158.835938 36.714844 " fill-opacity="1" fill-rule="nonzero"/></g><g clip-path="url(#f4c3e9a7a4)"><path fill="#3e503a" d="M 217.9375 9.9375 C 218.238281 11.566406 218.761719 13.6875 218.375 16.402344 C 218.128906 18.140625 217.515625 20.105469 216.277344 22.347656 L 216.363281 22.734375 C 216.675781 24.09375 217.5 26.277344 217.246094 28.703125 C 217.050781 30.597656 216.21875 32.621094 214.160156 34.644531 L 214.097656 35.019531 C 213.816406 36.691406 212.507812 40.078125 209.886719 43.492188 C 207.359375 46.777344 203.589844 50.128906 198.289062 52.015625 C 198.984375 53.199219 200.535156 54.921875 203.292969 56.652344 C 206.542969 58.695312 211.425781 60.730469 218.445312 61.90625 L 219.335938 62.054688 L 218.882812 62.835938 C 217.824219 64.652344 215.847656 67.402344 213.335938 69.796875 C 210.832031 72.175781 207.714844 74.273438 204.375 74.640625 L 204.070312 74.671875 L 194.453125 64.769531 C 190.722656 64.441406 185.164062 62.921875 180.234375 59.375 C 175.183594 55.742188 170.792969 49.980469 169.734375 41.25 C 169.65625 40.574219 169.605469 40.039062 169.527344 39.539062 C 169.453125 39.054688 169.355469 38.675781 169.199219 38.363281 C 168.921875 37.796875 168.386719 37.3125 166.980469 36.929688 C 165.589844 36.550781 164 36.597656 162.523438 36.777344 C 161.789062 36.863281 161.09375 36.984375 160.480469 37.089844 C 159.875 37.195312 159.316406 37.296875 158.894531 37.339844 C 158.78125 37.351562 158.613281 37.359375 158.449219 37.3125 C 158.363281 37.289062 158.214844 37.230469 158.09375 37.085938 C 157.957031 36.921875 157.917969 36.722656 157.941406 36.558594 C 157.964844 36.414062 158.023438 36.304688 158.0625 36.246094 C 158.105469 36.179688 158.152344 36.125 158.195312 36.085938 C 158.277344 36 158.375 35.921875 158.472656 35.851562 C 158.859375 35.566406 159.523438 35.199219 160.253906 34.84375 C 160.992188 34.484375 161.839844 34.117188 162.625 33.839844 C 163.171875 33.644531 163.730469 33.476562 164.207031 33.398438 C 164.453125 32.535156 164.957031 31.550781 165.664062 30.664062 C 166.507812 29.605469 167.679688 28.632812 169.140625 28.144531 C 170.882812 27.566406 172.933594 27.21875 175.503906 28.535156 C 177.890625 29.753906 180.671875 32.375 184.109375 37.398438 C 185.394531 35.179688 187.386719 32.1875 189.714844 29.496094 C 192.347656 26.453125 195.519531 23.671875 198.683594 22.96875 C 201.476562 22.34375 205.074219 20.039062 208.5 17.316406 C 211.894531 14.617188 215.023438 11.585938 216.863281 9.621094 L 217.710938 8.714844 Z M 216.933594 11.363281 C 215.023438 13.320312 212.253906 15.929688 209.28125 18.296875 C 205.851562 21.019531 202.054688 23.496094 198.957031 24.1875 C 196.222656 24.796875 193.277344 27.292969 190.664062 30.316406 C 188.074219 33.308594 185.90625 36.695312 184.707031 38.890625 L 184.210938 39.804688 L 183.632812 38.9375 C 179.96875 33.414062 177.160156 30.785156 174.933594 29.648438 C 172.765625 28.539062 171.089844 28.816406 169.539062 29.332031 C 168.363281 29.722656 167.378906 30.523438 166.648438 31.441406 C 165.910156 32.367188 165.464844 33.363281 165.332031 34.09375 L 165.234375 34.605469 L 164.714844 34.605469 C 164.394531 34.605469 163.800781 34.75 163.042969 35.019531 C 162.535156 35.199219 161.988281 35.421875 161.464844 35.660156 C 161.757812 35.613281 162.0625 35.570312 162.375 35.535156 C 163.90625 35.351562 165.6875 35.28125 167.308594 35.722656 C 168.910156 36.15625 169.828125 36.804688 170.324219 37.8125 C 170.5625 38.289062 170.683594 38.808594 170.769531 39.34375 C 170.851562 39.871094 170.90625 40.480469 170.980469 41.097656 C 171.992188 49.445312 176.164062 54.90625 180.96875 58.363281 C 185.714844 61.773438 191.085938 63.230469 194.621094 63.527344 L 194.789062 63.542969 L 195.027344 63.558594 L 204.539062 73.359375 C 207.367188 72.945312 210.121094 71.121094 212.46875 68.890625 C 214.550781 66.910156 216.25 64.667969 217.328125 62.980469 C 210.648438 61.761719 205.886719 59.761719 202.625 57.710938 C 199.234375 55.582031 197.429688 53.371094 196.824219 51.886719 L 196.574219 51.265625 L 197.214844 51.058594 C 202.585938 49.320312 206.375 46.003906 208.890625 42.730469 C 210.78125 40.265625 211.933594 37.851562 212.492188 36.195312 L 211.785156 36.59375 C 210.542969 37.457031 209.042969 38.3125 207.238281 39.160156 L 206.664062 38.046875 L 211.117188 35.53125 C 214.671875 33.046875 215.785156 30.640625 216 28.574219 C 216.167969 26.941406 215.792969 25.488281 215.445312 24.195312 L 213.5 26.472656 C 212.820312 27.332031 212.058594 28.230469 211.199219 29.164062 L 210.257812 28.332031 L 212.527344 25.679688 C 215.609375 21.761719 216.785156 18.6875 217.132812 16.226562 C 217.402344 14.324219 217.1875 12.753906 216.933594 11.363281 Z M 216.933594 11.363281 " fill-opacity="1" fill-rule="nonzero"/></g><path fill="#eae5df" d="M 241.464844 60.152344 C 241.464844 59.3125 241.753906 57.957031 242.335938 56.074219 L 242.601562 55.238281 C 242.980469 54.078125 243.410156 52.78125 243.890625 51.34375 L 245.480469 46.621094 C 246.238281 44.351562 246.871094 42.433594 247.375 40.871094 C 247.792969 39.699219 248.140625 38.65625 248.414062 37.738281 L 248.664062 36.867188 C 248.96875 35.707031 249.167969 34.722656 249.269531 33.917969 C 249.382812 33.3125 249.453125 32.75 249.484375 32.230469 L 249.5 31.726562 C 249.5 29.882812 248.988281 28.4375 247.964844 27.390625 L 247.753906 27.1875 C 246.664062 26.195312 245.109375 25.667969 243.085938 25.605469 L 242.675781 25.601562 C 239.542969 25.601562 236.636719 26.660156 233.960938 28.777344 L 233.46875 29.175781 C 231.007812 31.257812 228.570312 34.425781 226.152344 38.679688 L 225.925781 38.453125 C 226.730469 36.5625 227.160156 34.429688 227.207031 32.050781 L 227.214844 31.574219 C 227.214844 29.40625 226.859375 27.867188 226.152344 26.960938 C 225.535156 26.109375 224.5 25.660156 223.039062 25.605469 L 222.742188 25.601562 C 219.914062 25.601562 217.386719 26.835938 215.160156 29.304688 C 212.988281 31.773438 211.019531 35.605469 209.25 40.796875 L 211.523438 41.929688 C 211.964844 40.609375 212.484375 39.304688 213.082031 38.019531 L 213.34375 37.472656 C 214.050781 36.007812 214.785156 34.722656 215.542969 33.613281 C 216.25 32.601562 216.9375 31.757812 217.605469 31.09375 L 217.890625 30.816406 C 218.648438 30.113281 219.304688 29.757812 219.863281 29.757812 C 220.71875 29.757812 221.148438 30.441406 221.148438 31.800781 L 221.136719 32.210938 C 221.109375 32.65625 221.035156 33.199219 220.921875 33.839844 C 220.773438 34.648438 220.492188 35.730469 220.089844 37.09375 L 219.800781 38.136719 C 219.488281 39.242188 219.105469 40.53125 218.648438 42.007812 L 217.625 45.257812 C 217.246094 46.441406 216.828125 47.726562 216.375 49.113281 L 210.765625 66.425781 L 217.4375 66.425781 L 223.046875 51.304688 C 223.929688 48.925781 224.988281 46.582031 226.21875 44.277344 L 226.757812 43.292969 C 228.222656 40.671875 229.738281 38.351562 231.308594 36.335938 C 232.722656 34.527344 234.097656 33.046875 235.4375 31.894531 L 236.003906 31.421875 C 237.570312 30.164062 238.960938 29.53125 240.175781 29.53125 L 240.421875 29.542969 C 241.621094 29.652344 242.222656 30.582031 242.222656 32.328125 C 242.222656 32.78125 242.171875 33.261719 242.070312 33.765625 C 242.019531 34.269531 241.894531 34.875 241.691406 35.582031 L 241.5625 36.097656 C 241.421875 36.632812 241.234375 37.242188 241.007812 37.925781 L 240.496094 39.4375 C 240.308594 39.992188 240.097656 40.597656 239.871094 41.25 C 238.507812 45.03125 237.421875 48.082031 236.613281 50.398438 L 236.078125 52.015625 C 235.574219 53.546875 235.171875 54.820312 234.867188 55.84375 L 234.589844 56.808594 C 234.335938 57.714844 234.148438 58.449219 234.035156 59.015625 C 233.933594 59.722656 233.882812 60.429688 233.882812 61.132812 C 233.882812 62.949219 234.238281 64.410156 234.945312 65.519531 C 235.703125 66.628906 236.714844 67.183594 237.976562 67.183594 C 238.859375 67.183594 239.878906 66.914062 241.035156 66.371094 L 241.539062 66.125 C 242.902344 65.417969 244.265625 64.488281 245.632812 63.328125 C 247.046875 62.167969 248.386719 60.882812 249.648438 59.472656 C 250.964844 58.011719 252.023438 56.523438 252.832031 55.011719 L 250.863281 53.953125 C 248.539062 56.523438 246.691406 58.386719 245.328125 59.546875 C 243.964844 60.707031 242.929688 61.285156 242.222656 61.285156 L 242.128906 61.28125 C 241.746094 61.242188 241.527344 60.953125 241.476562 60.417969 Z M 251.867188 31.726562 C 251.867188 32.535156 251.773438 33.386719 251.609375 34.273438 C 251.492188 35.203125 251.269531 36.273438 250.957031 37.460938 L 250.949219 37.488281 C 250.628906 38.660156 250.183594 40.042969 249.621094 41.621094 C 249.113281 43.191406 248.484375 45.105469 247.726562 47.367188 L 247.722656 47.375 C 246.5625 50.796875 245.605469 53.664062 244.851562 55.96875 C 244.714844 56.386719 244.597656 56.773438 244.488281 57.128906 C 245.667969 56.046875 247.199219 54.476562 249.105469 52.371094 L 250.347656 50.992188 L 256.03125 54.046875 L 254.921875 56.121094 C 254.011719 57.824219 252.835938 59.464844 251.414062 61.046875 C 250.070312 62.542969 248.648438 63.914062 247.136719 65.152344 L 247.132812 65.152344 C 245.664062 66.394531 244.164062 67.425781 242.628906 68.222656 C 241.089844 69.019531 239.511719 69.546875 237.976562 69.546875 C 235.871094 69.546875 234.152344 68.554688 232.988281 66.851562 L 232.964844 66.820312 L 232.945312 66.789062 C 231.921875 65.179688 231.515625 63.234375 231.515625 61.132812 C 231.515625 60.316406 231.574219 59.5 231.691406 58.683594 L 231.699219 58.621094 L 231.710938 58.554688 C 231.886719 57.691406 232.1875 56.554688 232.597656 55.171875 C 233.011719 53.773438 233.605469 51.929688 234.367188 49.652344 L 234.371094 49.636719 L 234.375 49.625 C 235.183594 47.300781 236.273438 44.25 237.632812 40.476562 C 238.085938 39.171875 238.460938 38.074219 238.761719 37.175781 C 239.050781 36.3125 239.253906 35.609375 239.382812 35.050781 L 239.398438 34.988281 L 239.414062 34.933594 C 239.589844 34.308594 239.679688 33.847656 239.710938 33.53125 L 239.722656 33.414062 L 239.746094 33.304688 C 239.820312 32.933594 239.851562 32.609375 239.851562 32.328125 C 239.851562 32.171875 239.84375 32.042969 239.835938 31.9375 C 239.351562 32.042969 238.585938 32.382812 237.492188 33.261719 L 237.484375 33.265625 C 236.15625 34.328125 234.714844 35.820312 233.175781 37.789062 L 233.171875 37.789062 C 231.691406 39.695312 230.242188 41.910156 228.828125 44.441406 C 227.421875 46.960938 226.234375 49.523438 225.265625 52.125 L 219.085938 68.789062 L 207.511719 68.789062 L 214.121094 48.386719 L 214.125 48.378906 C 215.03125 45.613281 215.785156 43.261719 216.386719 41.3125 C 216.988281 39.363281 217.457031 37.753906 217.800781 36.480469 L 217.816406 36.421875 C 218.1875 35.179688 218.429688 34.226562 218.566406 33.546875 C 218.222656 33.953125 217.863281 34.421875 217.484375 34.964844 C 216.808594 35.953125 216.136719 37.128906 215.476562 38.496094 C 214.8125 39.871094 214.242188 41.265625 213.769531 42.679688 L 212.90625 45.261719 L 206.34375 41.988281 L 207.007812 40.035156 C 208.816406 34.722656 210.910156 30.554688 213.382812 27.746094 L 213.390625 27.738281 L 213.398438 27.726562 C 215.984375 24.855469 219.121094 23.238281 222.742188 23.238281 C 224.738281 23.238281 226.742188 23.800781 228.019531 25.511719 C 228.027344 25.519531 228.035156 25.527344 228.042969 25.539062 C 228.050781 25.550781 228.0625 25.566406 228.074219 25.578125 L 228.070312 25.578125 C 228.925781 26.710938 229.335938 28.179688 229.496094 29.769531 C 230.476562 28.675781 231.472656 27.722656 232.492188 26.921875 C 235.546875 24.507812 238.960938 23.238281 242.675781 23.238281 C 245.246094 23.238281 247.601562 23.851562 249.351562 25.441406 C 251.125 27.058594 251.867188 29.273438 251.867188 31.726562 Z M 251.867188 31.726562 " fill-opacity="1" fill-rule="nonzero"/><path fill="#3e503a" d="M 240.175781 29.53125 C 238.960938 29.53125 237.574219 30.164062 236.007812 31.421875 C 234.492188 32.632812 232.921875 34.269531 231.308594 36.335938 C 229.738281 38.351562 228.222656 40.671875 226.757812 43.292969 C 225.292969 45.914062 224.054688 48.585938 223.046875 51.304688 L 217.4375 66.425781 L 210.765625 66.425781 L 216.375 49.113281 C 217.285156 46.339844 218.042969 43.972656 218.648438 42.007812 C 219.253906 40.042969 219.734375 38.402344 220.089844 37.09375 C 220.492188 35.730469 220.769531 34.648438 220.921875 33.84375 C 221.074219 32.984375 221.148438 32.304688 221.148438 31.800781 C 221.148438 30.441406 220.722656 29.757812 219.863281 29.757812 C 219.304688 29.757812 218.648438 30.113281 217.890625 30.816406 C 217.132812 31.523438 216.351562 32.457031 215.542969 33.613281 C 214.785156 34.722656 214.050781 36.007812 213.34375 37.472656 C 212.636719 38.933594 212.03125 40.417969 211.523438 41.929688 L 209.25 40.796875 C 211.019531 35.605469 212.988281 31.773438 215.160156 29.304688 C 217.386719 26.835938 219.914062 25.601562 222.742188 25.601562 C 224.359375 25.601562 225.496094 26.054688 226.152344 26.960938 C 226.859375 27.871094 227.214844 29.40625 227.214844 31.574219 C 227.214844 34.144531 226.785156 36.4375 225.925781 38.453125 L 226.152344 38.679688 C 228.730469 34.144531 231.332031 30.84375 233.960938 28.777344 C 236.636719 26.660156 239.542969 25.601562 242.675781 25.601562 C 244.898438 25.601562 246.59375 26.128906 247.753906 27.1875 C 248.917969 28.246094 249.496094 29.757812 249.496094 31.726562 C 249.496094 32.378906 249.421875 33.109375 249.269531 33.917969 C 249.167969 34.722656 248.96875 35.707031 248.664062 36.867188 C 248.359375 37.976562 247.929688 39.308594 247.375 40.871094 C 246.871094 42.433594 246.238281 44.351562 245.480469 46.617188 C 244.316406 50.046875 243.359375 52.917969 242.601562 55.238281 C 241.84375 57.554688 241.464844 59.195312 241.464844 60.152344 C 241.464844 60.90625 241.714844 61.285156 242.222656 61.285156 C 242.929688 61.285156 243.964844 60.707031 245.328125 59.546875 C 246.691406 58.386719 248.539062 56.523438 250.863281 53.953125 L 252.832031 55.011719 C 252.023438 56.523438 250.964844 58.007812 249.648438 59.472656 C 248.386719 60.882812 247.046875 62.167969 245.632812 63.328125 C 244.269531 64.484375 242.902344 65.417969 241.539062 66.125 C 240.175781 66.828125 238.988281 67.183594 237.976562 67.183594 C 236.714844 67.183594 235.703125 66.628906 234.945312 65.519531 C 234.238281 64.410156 233.882812 62.949219 233.882812 61.132812 C 233.882812 60.429688 233.933594 59.722656 234.035156 59.015625 C 234.1875 58.261719 234.464844 57.203125 234.867188 55.84375 C 235.273438 54.480469 235.855469 52.667969 236.613281 50.398438 C 237.421875 48.082031 238.507812 45.03125 239.871094 41.25 C 240.328125 39.941406 240.707031 38.832031 241.007812 37.925781 C 241.3125 37.015625 241.539062 36.234375 241.691406 35.582031 C 241.894531 34.875 242.019531 34.269531 242.070312 33.765625 C 242.171875 33.261719 242.222656 32.785156 242.222656 32.328125 C 242.222656 30.464844 241.539062 29.53125 240.175781 29.53125 Z M 240.175781 29.53125 " fill-opacity="1" fill-rule="nonzero"/></svg>