<svg width="26" height="25" viewBox="0 0 26 25" fill="none" xmlns="http://www.w3.org/2000/svg">
<path fill-rule="evenodd" clip-rule="evenodd" d="M5.16799 16.1727C3.78873 15.7625 2.63653 14.8073 1.97795 13.5278C1.90918 13.3982 1.84936 13.2815 1.79831 13.1809C0.986727 11.5767 1.50173 9.6204 3.01959 8.65767C6.86908 6.23087 10.8146 3.95293 14.8568 1.82468C16.4478 0.992257 18.373 1.53897 19.3789 3.02706C19.5734 3.31492 19.8781 3.79656 20.2401 4.38642C20.5354 4.86554 20.6572 5.43173 20.5849 5.99007C20.4148 7.30237 20.014 8.46868 19.4493 9.35693C19.0832 9.93276 18.6542 10.3941 18.1729 10.639C18.2135 9.89915 18.1631 9.20413 17.9824 8.62432C17.3169 6.48894 14.8858 5.71894 13.4113 6.99476C12.937 7.40509 12.6366 7.87641 12.4844 8.36844C12.0154 7.753 11.3546 7.2312 10.6335 6.93506C9.84364 6.61037 8.99415 6.55321 8.23882 6.83663C5.96352 7.69054 5.5376 9.89604 6.35159 11.7166C7.01563 13.2022 8.46688 14.4304 10.0486 15.3475C10.0439 15.3552 10.0389 15.363 10.034 15.3708C9.74327 15.8407 9.02766 16.2688 8.01879 16.427C7.21843 16.5528 6.26298 16.4994 5.16799 16.1727ZM22.1084 8.71684C22.1544 8.58702 22.2724 8.49635 22.4094 8.48497C22.5467 8.47348 22.6778 8.54329 22.7449 8.66363C23.4904 9.99698 24.0612 11.0846 24.19 11.3709C24.9265 13.0079 24.4843 14.9261 22.9698 15.8886C19.1133 18.3252 15.166 20.6044 11.1277 22.7257C9.53573 23.5564 7.57327 23.0325 6.60677 21.5184C6.5386 21.4118 5.3685 19.5042 4.83716 18.6373C4.79609 18.5687 4.80027 18.4821 4.84756 18.4178C4.89503 18.3534 4.97655 18.324 5.05433 18.3431C6.88695 18.7968 8.39804 18.6391 9.50843 18.2425C10.6652 17.8296 11.4488 17.1391 11.8483 16.4937C11.8893 16.4275 11.9296 16.3613 11.9691 16.2953C12.1572 16.3736 12.3434 16.4474 12.5268 16.5163L12.5271 16.5163C13.4998 16.8811 14.5788 16.8316 15.514 16.3798C16.4488 15.928 17.1579 15.1129 17.4764 14.1248C17.599 13.7449 17.7129 13.3465 17.8119 12.9406C19.128 12.7904 20.3448 11.9251 21.2497 10.5017C21.5819 9.97929 21.8719 9.37845 22.1084 8.71684ZM10.9838 13.4564C9.82517 12.789 8.78226 11.926 8.29932 10.8458C7.96859 10.1061 8.06382 9.18125 8.98836 8.83414C9.33905 8.70266 9.73538 8.83578 10.084 9.03765C10.5005 9.27899 10.8643 9.65007 11.0172 10.0606C11.4401 11.1973 11.39 12.3046 10.9838 13.4564ZM16.0694 10.5964C15.6277 10.4696 15.2351 10.2693 14.8358 9.86262C14.6334 9.65654 14.4991 9.42451 14.4969 9.18274C14.4949 8.97363 14.6101 8.77879 14.8072 8.60814C15.2056 8.26342 15.7657 8.68229 15.9455 9.25917C16.0674 9.65002 16.0987 10.1076 16.0694 10.5964ZM15.6797 12.6946C15.606 12.9596 15.5266 13.2196 15.4457 13.4696L15.4457 13.4699C15.3061 13.9035 14.9953 14.2607 14.5855 14.4588C14.1757 14.6569 13.7028 14.6785 13.2766 14.5189C13.1587 14.4745 13.0387 14.4281 12.9172 14.3796C13.2923 13.3985 13.4756 12.443 13.4495 11.4919C14.1623 12.1741 14.8502 12.4879 15.6797 12.6946Z" fill="#D72539"/>
</svg>
