<svg xmlns="http://www.w3.org/2000/svg" xmlns:xlink="http://www.w3.org/1999/xlink" xmlns:xodm="http://www.corel.com/coreldraw/odm/2003" xml:space="preserve" width="358px" height="142px" style="shape-rendering:geometricPrecision; text-rendering:geometricPrecision; image-rendering:optimizeQuality; fill-rule:evenodd; clip-rule:evenodd" viewBox="0 0 72.92 28.87"> <defs>  <style type="text/css">   <![CDATA[    .fil0 {fill:#D81F26;fill-rule:nonzero}   ]]>  </style> </defs> <g id="Layer_x0020_1">  <metadata id="CorelCorpID_0Corel-Layer"></metadata>  <path class="fil0" d="M31.18 0.64l-0.74 0 0 -0.64 2.18 0 0 0.64 -0.74 0 0 3.84 -0.7 0 0 -3.84zm37.3 28.02c-1.43,-0.25 -2.54,-0.82 -3.3,-1.78 -0.75,-0.95 -1.14,-2.19 -1.14,-3.74 0,-1.68 0,-3.36 0,-5.04 0,-1.68 0,-3.36 0,-5.04 0,-1.55 0.39,-2.74 1.14,-3.57 0.76,-0.83 1.86,-1.25 3.3,-1.25 1.44,0 2.55,0.44 3.3,1.33 0.76,0.9 1.14,2.2 1.14,3.87 0,0.59 0,1.19 0,1.78 -0.94,-0.06 -1.88,-0.13 -2.82,-0.19 0,-0.64 0,-1.28 0,-1.92 0,-1.33 -0.51,-2.01 -1.53,-2.03 -1.03,-0.03 -1.55,0.61 -1.55,1.9 0,1.79 0,3.58 0,5.37 0,1.79 0,3.58 0,5.37 0,1.27 0.52,1.96 1.55,2.12 1.02,0.16 1.53,-0.4 1.53,-1.7 0,-1.32 0,-2.63 0,-3.95 -0.49,-0.05 -0.99,-0.11 -1.48,-0.17 0,-0.94 0,-1.89 0,-2.83 1.43,0.12 2.86,0.24 4.3,0.36 0,1.13 0,2.26 0,3.39 0,1.13 0,2.26 0,3.38 0,1.68 -0.38,2.9 -1.14,3.66 -0.75,0.74 -1.85,0.94 -3.3,0.68zm-15.76 -20.17c1.24,0.01 2.48,0.01 3.73,0.01 0.48,1.83 0.96,3.67 1.44,5.52 0.48,1.86 0.96,3.73 1.45,5.61 0.02,0 0.04,0 0.06,0 0,-1.85 0,-3.71 0,-5.56 0,-1.86 0,-3.71 0,-5.57 0.88,0 1.76,0.01 2.65,0.01 0,3.15 0,6.31 0,9.46 0,3.15 0,6.31 0,9.46 -1.02,-0.13 -2.04,-0.25 -3.06,-0.37 -0.6,-2.31 -1.19,-4.61 -1.78,-6.89 -0.59,-2.26 -1.19,-4.52 -1.78,-6.76 -0.03,0 -0.05,0 -0.06,0 0,2.22 0,4.43 0,6.65 0,2.21 0,4.43 0,6.64 -0.88,-0.08 -1.77,-0.14 -2.65,-0.2 0,-3 0,-6 0,-9 0,-3 0,-6 0,-9.01zm-5.19 0c0.99,0 1.98,0 2.97,0 0,2.98 0,5.95 0,8.93 0,2.97 0,5.95 0,8.92 -0.99,-0.06 -1.98,-0.11 -2.97,-0.16 0,-2.95 0,-5.9 0,-8.84 0,-2.95 0,-5.9 0,-8.85zm-10.98 0c1.51,0 3.02,0 4.54,0 1.48,0 2.59,0.37 3.32,1.1 0.75,0.74 1.11,1.82 1.11,3.25 0,1.48 0,2.97 0,4.45 0,1.48 0,2.96 0,4.45 0,1.42 -0.36,2.48 -1.11,3.2 -0.73,0.72 -1.84,1.06 -3.32,1.02 -1.52,-0.03 -3.03,-0.03 -4.54,-0.03 0,-2.91 0,-5.81 0,-8.72 0,-2.91 0,-5.82 0,-8.72zm4.49 14.98c0.49,0.01 0.86,-0.12 1.12,-0.38 0.27,-0.26 0.4,-0.69 0.4,-1.29 0,-1.52 0,-3.04 0,-4.56 0,-1.51 0,-3.03 0,-4.55 0,-0.6 -0.14,-1.03 -0.4,-1.3 -0.26,-0.27 -0.63,-0.41 -1.12,-0.41 -0.51,0 -1.01,0 -1.52,0 0,2.08 0,4.16 0,6.23 0,2.08 0,4.16 0,6.23 0.51,0.01 1.01,0.02 1.52,0.03zm-15.47 -14.98c1.51,0 3.03,0 4.55,0 1.48,0 2.58,0.36 3.32,1.1 0.74,0.73 1.11,1.8 1.11,3.21 0,1.47 0,2.94 0,4.41 0,1.47 0,2.94 0,4.41 0,1.42 -0.37,2.5 -1.11,3.24 -0.74,0.75 -1.84,1.12 -3.32,1.16 -1.52,0.05 -3.04,0.13 -4.55,0.18 0,-2.95 0,-5.9 0,-8.85 0,-2.95 0,-5.91 0,-8.86zm4.49 15.03c0.49,-0.01 0.86,-0.15 1.12,-0.42 0.26,-0.28 0.39,-0.71 0.39,-1.31 0,-1.52 0,-3.03 0,-4.55 0,-1.52 0,-3.03 0,-4.55 0,-0.6 -0.13,-1.03 -0.39,-1.3 -0.26,-0.26 -0.63,-0.4 -1.12,-0.4 -0.51,0.01 -1.01,0.01 -1.51,0.01 0,2.1 0,4.19 0,6.29 0,2.09 0,4.19 0,6.28 0.5,-0.02 1,-0.04 1.51,-0.05zm-14.3 -15.02c2.7,0 5.41,-0.01 8.11,-0.01 0,0.85 0,1.7 0,2.55 -1.71,0.01 -3.42,0.03 -5.14,0.05 0,0.8 0,1.6 0,2.41 0,0.8 0,1.59 0,2.39 1.36,-0.04 2.72,-0.08 4.09,-0.12 0,0.85 0,1.7 0,2.56 -1.37,0.04 -2.73,0.1 -4.09,0.16 0,0.93 0,1.86 0,2.79 0,0.93 0,1.86 0,2.79 1.72,-0.12 3.43,-0.22 5.14,-0.31 0,0.85 0,1.7 0,2.54 -2.7,0.17 -5.41,0.39 -8.11,0.63 0,-3.07 0,-6.15 0,-9.22 0,-3.06 0,-6.14 0,-9.21zm-15.76 0.03c0.96,0 1.91,0 2.87,0 0.21,2.57 0.43,5.14 0.65,7.69 0.22,2.55 0.44,5.09 0.67,7.62 0.01,0 0.03,-0.01 0.05,-0.01 0.24,-2.57 0.47,-5.14 0.7,-7.7 0.24,-2.54 0.47,-5.08 0.7,-7.61 1.08,0 2.16,-0.01 3.25,-0.01 0.23,2.46 0.47,4.91 0.7,7.35 0.23,2.44 0.47,4.86 0.71,7.28 0.01,0 0.03,0 0.05,-0.01 0.22,-2.45 0.44,-4.9 0.66,-7.34 0.22,-2.44 0.44,-4.86 0.66,-7.28 0.86,-0.01 1.72,-0.01 2.58,-0.01 -0.32,3.11 -0.64,6.22 -0.96,9.35 -0.33,3.13 -0.65,6.28 -0.97,9.44 -1.24,0.15 -2.47,0.31 -3.7,0.48 -0.23,-2.14 -0.46,-4.28 -0.68,-6.43 -0.22,-2.16 -0.45,-4.32 -0.67,-6.49 -0.02,0 -0.04,0 -0.06,0 -0.22,2.2 -0.46,4.42 -0.68,6.63 -0.22,2.23 -0.45,4.46 -0.67,6.7 -1.32,0.22 -2.63,0.44 -3.94,0.69 -0.32,-3.34 -0.65,-6.7 -0.96,-10.08 -0.32,-3.4 -0.65,-6.81 -0.96,-10.26zm34.76 -8.53l0.7 0 0 1.83 2.07 0 0 -1.83 0.7 0 0 4.48 -0.7 0 0 -2.01 -2.07 0 0 2.01 -0.7 0 0 -4.48zm5.8 0l1.92 0 0 0.64 -1.22 0 0 1.19 0.97 0 0 0.64 -0.97 0 0 1.37 1.22 0 0 0.64 -1.92 0 0 -4.48z"></path> </g></svg>